<svg width="215" height="96" viewBox="0 0 215 96" fill="none" xmlns="http://www.w3.org/2000/svg">
<path fill-rule="evenodd" clip-rule="evenodd" d="M104.519 59.8038C104.2 60.4751 103.801 61.278 103.323 62.2119C102.844 63.146 102.3 64.0436 101.691 64.9048C101.082 65.7661 100.415 66.503 99.69 67.1159C98.9648 67.7291 98.1817 68.0355 97.3406 68.0355C96.9636 68.0355 96.572 67.9626 96.1661 67.8165C95.76 67.6707 95.4191 67.4006 95.1436 67.0067C94.8679 66.6125 94.7014 66.0871 94.6434 65.4303C94.5853 64.7735 94.7159 63.9343 95.0346 62.9125C95.2088 62.3287 95.4988 61.6646 95.9049 60.9204C96.311 60.1759 96.8187 59.3075 97.4278 58.3149C97.6888 57.8772 97.8337 57.4978 97.8628 57.1765C97.8919 56.8556 97.7828 56.6659 97.5364 56.6075C97.29 56.5491 96.9054 56.6659 96.3833 56.9576C95.8613 57.2495 95.1799 57.7897 94.3386 58.5778C93.5846 59.2491 92.6926 60.2561 91.663 61.599C90.6335 62.9418 89.5094 64.8246 88.2913 67.2475C88.1171 67.5685 87.9143 67.7582 87.6821 67.8165C87.4502 67.8749 87.1021 67.9042 86.638 67.9042C86.3189 67.9333 86.0507 67.9478 85.8333 67.9478C85.6157 67.9478 85.3908 68.021 85.1587 68.1669C85.8474 66.7811 86.5137 65.408 87.1581 64.0476C86.8833 64.4502 86.589 64.838 86.2758 65.2113C85.5775 66.0432 84.7606 66.722 83.8241 67.2475C82.8881 67.7729 81.7532 68.0355 80.4202 68.0355C79.2143 68.0355 78.1592 67.6925 77.2546 67.0067C76.3502 66.3206 75.882 65.277 75.8503 63.876C75.8503 63.2337 75.9375 62.5477 76.1122 61.818C76.1905 61.4904 76.2848 61.1645 76.395 60.84C76.2316 61.1992 76.0496 61.5905 75.8491 62.0149C75.4149 62.9345 74.8939 63.8321 74.2859 64.7079C73.6781 65.5834 73.005 66.3279 72.2668 66.9408C71.5285 67.5539 70.7249 67.8604 69.8567 67.8604C69.5092 67.8604 69.1689 67.7654 68.836 67.5757C68.503 67.386 68.1919 67.0869 67.9025 66.6782C67.6709 66.2988 67.4899 65.7879 67.3597 65.1456C67.2296 64.5034 67.28 63.7299 67.5117 62.825C67.1933 63.3505 66.8242 63.9416 66.4045 64.5984C65.9846 65.2551 65.5142 65.8463 64.9932 66.3717C64.4722 66.8972 63.893 67.2984 63.2562 67.5757C62.6191 67.8531 61.9244 67.8895 61.1715 67.6852C60.1583 67.3933 59.5142 66.7877 59.2394 65.8681C58.9644 64.9487 58.9496 63.8905 59.196 62.6937C59.276 62.304 59.3768 61.9108 59.4983 61.5136L59.2783 61.9931C58.8485 62.9273 58.3252 63.8321 57.7092 64.7079C57.093 65.5834 56.3697 66.3424 55.5385 66.9846C54.7075 67.6269 53.7476 67.9478 52.6586 67.9478C51.856 67.9478 51.2328 67.7947 50.7887 67.4883C50.3444 67.1818 50.0292 66.7804 49.8428 66.284C49.6567 65.7879 49.5706 65.2333 49.5852 64.6202C49.5992 64.0073 49.6639 63.3796 49.7784 62.7374C49.893 62.0951 50.0363 61.4749 50.2084 60.8766C50.3381 60.425 50.4515 60.0191 50.5486 59.6589L50.5428 59.6723C50.3692 60.081 50.0876 60.7232 49.6972 61.599C49.3071 62.4747 48.8229 63.3505 48.2449 64.226C47.6667 65.1018 46.9949 65.8681 46.2289 66.5323C45.4631 67.1964 44.6321 67.5246 43.7359 67.5246C43.0712 67.5246 42.5146 67.4151 42.0667 67.2109C41.6189 66.9992 41.2503 66.7366 40.9612 66.4156C40.3541 66.8751 39.733 67.2402 39.0971 67.5028C38.4612 67.7729 37.8253 67.8895 37.1892 67.8604C36.3512 67.8313 35.6937 67.5903 35.2165 67.138C34.7396 66.6854 34.4219 66.0871 34.2627 65.3426C34.1037 64.5984 34.0965 63.7517 34.2411 62.803C34.3858 61.8543 34.6604 60.8984 35.0651 59.9351C35.4984 58.9426 36.0332 57.9939 36.6691 57.0891C37.305 56.184 37.9915 55.3959 38.7283 54.7246C39.4655 54.0531 40.2242 53.5204 41.0045 53.1265C41.7851 52.7323 42.5509 52.5499 43.3024 52.579C44.1116 52.579 44.7622 52.8125 45.2535 53.2796C45.7445 53.7467 46.0699 54.3598 46.2289 55.1186C46.3876 55.8776 46.3949 56.7315 46.2505 57.6802C46.106 58.6289 45.8314 59.5848 45.4267 60.5481C45.1088 61.3071 44.6321 62.161 43.996 63.1097C43.3603 64.0584 42.6231 64.9266 41.7851 65.7149C42.1607 66.4446 42.84 66.8095 43.8227 66.8095C44.5163 66.8095 45.174 66.5176 45.7953 65.9337C46.4169 65.3501 46.9879 64.6495 47.5077 63.8321C48.0282 63.0147 48.4906 62.1828 48.8953 61.3364C49.2998 60.4897 49.6323 59.8038 49.8923 59.2784C50.0079 59.0448 50.1814 58.9719 50.4126 59.0594C50.5601 59.1152 50.6309 59.2186 50.6257 59.3691L50.6382 59.3222C50.9822 58.0962 51.3976 56.7972 51.8846 55.4253C52.3719 54.0531 52.902 52.6885 53.4751 51.3311C54.0484 49.9737 54.65 48.6529 55.2805 47.3685C55.911 46.084 56.5415 44.9166 57.1721 43.8656C57.9458 42.5521 58.7623 41.6107 59.6221 41.0414C60.4819 40.4723 61.1982 40.2824 61.7713 40.4723C62.3446 40.662 62.6813 41.2384 62.7814 42.2018C62.8817 43.165 62.545 44.5224 61.7713 46.2739C60.7684 48.5507 59.5792 50.8204 58.2035 53.0826C56.8281 55.3448 55.0801 57.4539 52.9595 59.4097C52.8446 59.7891 52.7016 60.2271 52.5297 60.7232C52.3576 61.2196 52.2 61.7451 52.0565 62.2996C51.7414 63.6131 51.6842 64.6495 51.8846 65.4085C52.0854 66.1672 52.4366 66.6564 52.9381 66.8751C53.4392 67.0941 54.0123 67.0503 54.6573 66.7438C55.3021 66.4374 55.911 65.8753 56.4841 65.0582C56.8281 64.5327 57.1646 64.0073 57.4942 63.4818C57.8239 62.9564 58.1247 62.4454 58.3969 61.9493C58.6692 61.4531 58.913 60.9933 59.1276 60.5701C59.3428 60.1466 59.5217 59.7891 59.6652 59.4971C59.8657 59.1178 60.0734 58.9499 60.2882 58.9937C60.3747 59.0113 60.4275 59.0608 60.4467 59.1421L60.5203 58.9937C61.1572 57.7238 61.8665 56.6075 62.6484 55.644C63.2562 54.9434 63.9362 54.3305 64.6891 53.805C65.4417 53.2796 66.2307 52.8857 67.0559 52.6228C67.881 52.3602 68.7131 52.258 69.5526 52.3164C70.3922 52.3747 71.2025 52.6373 71.9845 53.1044C73.0268 51.0903 73.9963 49.1563 74.8939 47.3028C75.7915 45.4493 76.5005 43.924 77.0217 42.7273C77.4271 41.7347 77.8466 41.0925 78.2809 40.8006C78.7151 40.5087 79.2797 40.3919 79.9745 40.4503C80.2641 40.4796 80.5679 40.5305 80.8866 40.6036C81.205 40.6766 81.5234 40.6838 81.8418 40.6254C81.6393 40.8299 81.27 41.3626 80.7344 42.2236C80.1989 43.0849 79.5763 44.1358 78.8671 45.3761C78.158 46.6167 77.3908 47.9962 76.5657 49.5141C75.7408 51.0319 74.9443 52.5499 74.1773 54.0679C73.4101 55.5856 72.6865 57.0452 72.0061 58.4465C71.3259 59.8475 70.7831 61.0444 70.3777 62.0367C70.2618 62.2996 70.1172 62.6862 69.9434 63.1972C69.7699 63.7081 69.6468 64.226 69.5744 64.7515C69.5017 65.2769 69.531 65.7368 69.6611 66.1309C69.7915 66.5248 70.1172 66.722 70.6384 66.722C71.1885 66.722 71.7456 66.4301 72.31 65.8463C72.8748 65.2624 73.4101 64.5763 73.9168 63.7883C74.4235 63.0002 74.8793 62.1974 75.2845 61.38C75.6899 60.5628 76.0083 59.9206 76.24 59.4535C76.4137 59.0448 76.6166 58.877 76.848 58.9499C77.0037 58.9989 77.0611 59.1302 77.0208 59.3438C77.3198 58.7367 77.6595 58.1456 78.0403 57.5707C78.4846 56.8994 78.9763 56.2717 79.5158 55.6879C80.1189 55.0456 80.7855 54.4618 81.5154 53.9363C82.2454 53.4109 82.9753 53.0097 83.7052 52.7323C84.4354 52.4549 85.1414 52.3164 85.8235 52.3164C86.506 52.3164 87.1168 52.4915 87.6566 52.8418C88.1009 53.1628 88.3628 53.5715 88.4421 54.0679C88.5211 54.564 88.4341 55.1113 88.1802 55.7097C87.9262 56.3081 87.5295 56.9139 86.99 57.5269C86.4504 58.1398 85.7998 58.7091 85.0382 59.2345C84.6574 59.4971 84.2051 59.7455 83.6813 59.979C83.1577 60.2125 82.6102 60.4168 82.039 60.5919C81.4676 60.7671 80.9283 60.9056 80.4202 61.0079C79.9126 61.1101 79.4999 61.1612 79.1827 61.1612C78.9923 61.5699 78.8258 62.1099 78.6828 62.7812C78.54 63.4525 78.4924 64.1095 78.54 64.7515C78.5878 65.3937 78.7782 65.9558 79.1114 66.4374C79.4446 66.919 80.008 67.1598 80.8012 67.1598C81.8486 67.1598 82.7926 66.8751 83.6339 66.3061C84.4748 65.7368 85.2209 65.0582 85.8713 64.2699C86.5217 63.4818 87.0772 62.6644 87.5375 61.818C87.9977 60.9713 88.3708 60.2561 88.6561 59.6723C88.7513 59.4681 88.8705 59.3147 89.0132 59.2127C89.1558 59.1105 89.2829 59.0594 89.394 59.0594C89.4388 59.0594 89.4787 59.0678 89.5131 59.0845C90.0449 58.0171 90.5946 56.9578 91.1627 55.9069C91.7139 54.8559 92.1923 54.1263 92.5984 53.7176C93.0045 53.3089 93.5555 53.1192 94.2516 53.1483C94.5417 53.1776 94.839 53.2285 95.1436 53.3016C95.4479 53.3745 95.76 53.3818 96.0789 53.3234C95.76 53.4986 95.3755 53.878 94.926 54.4618C94.4765 55.0456 94.0125 55.7317 93.5339 56.5198C93.0554 57.3079 92.5766 58.1473 92.098 59.0376C91.6194 59.9279 91.1917 60.7671 90.8145 61.5551C91.2497 61.0006 91.7934 60.3511 92.4462 59.6066C93.0987 58.8624 93.7588 58.1982 94.4256 57.6145C94.9478 57.1475 95.5933 56.6438 96.3617 56.1038C97.1303 55.5638 97.9062 55.0822 98.6893 54.659C99.4725 54.2355 100.205 53.9073 100.886 53.6737C101.568 53.4402 102.097 53.3818 102.474 53.4986C101.604 55.0749 100.807 56.5782 100.081 58.0085C99.7625 58.6216 99.4509 59.2491 99.1461 59.8913C98.8417 60.5335 98.5587 61.1539 98.2977 61.7523C98.0368 62.3507 97.8119 62.9125 97.6234 63.438C97.4349 63.9634 97.3115 64.416 97.2536 64.7953C97.0796 65.7002 97.0796 66.2913 97.2536 66.5687C97.4278 66.8461 97.6597 66.9846 97.9498 66.9846C98.5008 66.9846 99.0809 66.6782 99.69 66.0653C100.299 65.4521 100.879 64.7297 101.43 63.8978C101.981 63.0659 102.474 62.2267 102.909 61.38C103.345 60.5335 103.678 59.8768 103.91 59.4097C104.084 59.0303 104.28 58.8915 104.497 58.9937C104.715 59.096 104.722 59.3658 104.519 59.8038ZM35.7676 72.5888C36.0883 72.6753 36.3289 72.7766 36.4895 72.8915C36.6499 73.0069 36.7155 73.1225 36.6862 73.2376C36.6574 73.353 36.5406 73.4249 36.3362 73.454C36.1322 73.4826 35.8259 73.454 35.4175 73.3675C34.9216 73.2521 34.2946 73.1368 33.5361 73.0214C32.778 72.9058 31.9538 72.8195 31.0642 72.7618C30.1746 72.7044 29.2557 72.6608 28.3077 72.6324C27.3598 72.6033 26.4484 72.5888 25.5735 72.5888C24.6399 73.9155 23.5535 75.1476 22.3141 76.2869C21.0742 77.4258 19.7616 78.4493 18.3761 79.3576C16.9908 80.2657 15.5687 81.0517 14.1105 81.7143C12.6521 82.3779 11.2518 82.8895 9.91015 83.2501C8.56849 83.6103 7.31452 83.8194 6.14754 83.8771C4.98079 83.9348 3.98896 83.8194 3.17276 83.531C1.80155 83.041 0.890144 82.4574 0.437842 81.7795C-0.0139903 81.1019 -0.116222 80.3811 0.131618 79.6172C0.379692 78.8526 0.941025 78.0816 1.81608 77.3032C2.69114 76.5245 3.7777 75.7967 5.07575 75.1188C6.37357 74.4416 7.85404 73.843 9.51647 73.3244C11.1789 72.8052 12.9147 72.416 14.723 72.1567C15.277 72.0699 15.9481 71.9907 16.7355 71.9187C17.5231 71.8465 18.3395 71.7742 19.1857 71.7025C20.0315 71.6303 20.87 71.5726 21.7014 71.5294C22.5324 71.4861 23.2982 71.4645 23.9983 71.4645C24.5233 70.5704 25.0117 69.6982 25.464 68.848C25.9163 67.9973 26.3173 67.1469 26.6669 66.2962C27.017 65.4455 27.3382 64.5733 27.6296 63.6792C27.9216 62.7857 28.1839 61.8344 28.4172 60.825L28.5922 60.0899C28.1549 60.4934 27.5715 60.9835 26.842 61.5605C26.1131 62.1371 25.2743 62.7134 24.3264 63.2902C23.3784 63.8671 22.3502 64.4218 21.2421 64.9555C20.1337 65.4889 18.9815 65.907 17.7857 66.2097C16.5896 66.5122 15.372 66.6857 14.1321 66.7288C12.8927 66.7717 11.6748 66.5916 10.479 66.1876C9.10801 65.7264 7.89789 64.8835 6.84744 63.6577C5.79747 62.4325 5.03191 60.9331 4.55076 59.16C4.06939 57.3869 3.93808 55.3898 4.15685 53.1698C4.37561 50.9496 5.08279 48.6142 6.27884 46.1633C5.43309 45.2983 4.76203 44.3466 4.26611 43.3088C3.77043 42.271 3.48601 41.2041 3.41309 40.1084C3.34017 39.013 3.51509 37.9098 3.93808 36.8C4.36131 35.6895 5.08279 34.6302 6.10369 33.6207C6.42469 33.3037 6.68706 33.1668 6.89152 33.2099C7.09552 33.2531 7.0226 33.5056 6.67276 33.9668C5.94331 34.8609 5.42559 35.7833 5.11913 36.7348C4.81291 37.6865 4.6891 38.6308 4.74749 39.5675C4.80564 40.5049 5.02464 41.4276 5.40378 42.3357C5.78316 43.2441 6.30792 44.0875 6.97898 44.8657C7.12459 44.5775 7.27794 44.2964 7.43832 44.0228C7.59847 43.7484 7.76611 43.4677 7.94127 43.1791C9.10801 41.3052 10.501 39.647 12.1196 38.2054C13.7384 36.7636 15.4667 35.5819 17.3043 34.6588C19.1419 33.7363 21.0231 33.0875 22.9481 32.7129C24.8732 32.3377 26.7107 32.28 28.4611 32.5398C30.7071 32.8857 32.5006 33.5706 33.8423 34.5938C35.1842 35.6178 36.0738 36.7927 36.5113 38.1189C36.9488 39.4451 36.9413 40.8435 36.4895 42.3139C36.0374 43.7845 35.1403 45.14 33.7987 46.3797C32.457 47.6194 30.6776 48.6501 28.4611 49.4719C26.2441 50.2935 23.5899 50.7189 20.4981 50.7477C19.4481 50.7766 18.3834 50.7189 17.3043 50.5747C16.2253 50.4305 15.1896 50.2288 14.1978 49.969C13.2059 49.7102 12.2657 49.3927 11.3759 49.0178C10.486 48.6431 9.69162 48.2252 8.99125 47.7636C8.02896 49.8108 7.40174 51.7714 7.11006 53.6458C6.81837 55.52 6.81837 57.2136 7.11006 58.7276C7.40174 60.2409 7.96354 61.5242 8.79452 62.5767C9.62597 63.6291 10.6832 64.3569 11.9665 64.7609C13.3959 65.2221 14.9272 65.3229 16.5606 65.0636C18.1939 64.804 19.7253 64.3569 21.1544 63.7228C22.5837 63.0881 23.8232 62.3458 24.8732 61.4953C25.9234 60.6447 26.6087 59.8592 26.9297 59.1384C27.5715 57.6678 28.213 56.6373 28.8545 56.0459C29.4963 55.4548 30.0724 55.1521 30.5829 55.138C31.0933 55.1232 31.5015 55.3251 31.808 55.7432C32.1142 56.1615 32.2237 56.6443 32.1362 57.192C31.8152 59.5851 31.1444 61.9134 30.1235 64.1768C29.1028 66.4402 27.79 68.8693 26.186 71.4645C28.1401 71.4931 29.8972 71.6087 31.4581 71.8106C33.0186 72.012 34.4547 72.272 35.7676 72.5888ZM23.2982 72.6324C21.8984 72.6899 20.5126 72.7694 19.1419 72.8702C17.7709 72.9712 16.4729 73.1225 15.2477 73.3244C13.9645 73.5262 12.6521 73.8575 11.3102 74.319C9.96877 74.7804 8.71433 75.3066 7.54782 75.8977C6.38084 76.4891 5.35267 77.1231 4.46307 77.8005C3.57347 78.4781 2.93922 79.1199 2.56007 79.725C2.18093 80.3307 2.10777 80.8712 2.34107 81.3469C2.57438 81.8227 3.23091 82.176 4.30996 82.4067C4.95172 82.5509 5.75385 82.5795 6.71637 82.4933C7.67889 82.4067 8.7216 82.2048 9.84473 81.8876C10.9676 81.5704 12.1341 81.1307 13.3447 80.5687C14.5551 80.0064 15.7584 79.3433 16.9542 78.5794C18.1501 77.815 19.295 76.9357 20.3888 75.9406C21.4827 74.946 22.4522 73.843 23.2982 72.6324ZM28.6799 33.8372C27.1921 33.6353 25.6244 33.7509 23.9765 34.183C22.3284 34.6156 20.7098 35.3005 19.1199 36.2373C17.5303 37.1747 16.021 38.3278 14.5917 39.6974C13.1626 41.067 11.9374 42.588 10.9168 44.2605C10.6832 44.6643 10.4497 45.0605 10.2164 45.4495C9.98307 45.8388 9.76431 46.2352 9.56032 46.6388C10.9311 47.6484 12.6521 48.4196 14.723 48.9528C16.7939 49.4865 18.9522 49.6379 21.1982 49.407C23.6483 49.1474 25.7846 48.6285 27.6078 47.8503C29.4306 47.0716 30.9181 46.149 32.0706 45.0821C33.2226 44.0152 34.032 42.8766 34.4986 41.6651C34.9654 40.4543 35.0604 39.3157 34.7832 38.2488C34.5061 37.1817 33.8643 36.2448 32.858 35.4375C31.8516 34.6302 30.459 34.097 28.6799 33.8372ZM44.2129 53.9802C43.7505 53.8634 43.2447 53.9291 42.6953 54.1771C42.1462 54.4255 41.5971 54.8194 41.0479 55.3594C40.4988 55.8996 39.9642 56.5416 39.4439 57.286C38.9236 58.0305 38.4612 58.8404 38.0565 59.7161C37.623 60.621 37.2834 61.4749 37.0377 62.2778C36.7917 63.0804 36.6403 63.8028 36.5824 64.445C36.5244 65.0873 36.5678 65.62 36.7125 66.0432C36.8567 66.4664 37.1315 66.7366 37.5362 66.8533C37.9407 66.9701 38.4033 66.9262 38.9236 66.722C39.4439 66.5176 39.9642 66.1966 40.4842 65.7586C40.2528 65.4085 40.0795 65.0434 39.9642 64.664C39.8486 64.2844 39.7907 63.9343 39.7907 63.6131C39.8195 63.117 39.9424 62.679 40.159 62.2996C40.3762 61.92 40.7588 61.7303 41.308 61.7303C41.6838 61.7303 41.9945 61.8616 42.2402 62.1244C42.486 62.387 42.6088 62.6937 42.6088 63.0438C42.6088 63.1315 42.6016 63.2117 42.587 63.2849C42.5727 63.3578 42.5509 63.438 42.5218 63.5257C43.0135 62.7957 43.4611 62.0077 43.8658 61.1612C44.2996 60.2561 44.6321 59.3952 44.8633 58.5778C45.0945 57.7604 45.2244 57.0307 45.2535 56.3885C45.2821 55.7463 45.2099 55.2135 45.0366 54.7903C44.8633 54.3671 44.5887 54.097 44.2129 53.9802ZM61.1265 45.6172C61.3269 45.1208 61.499 44.5808 61.6425 43.997C61.7858 43.4131 61.8358 42.9533 61.7926 42.6178C61.7499 42.282 61.5994 42.158 61.3415 42.2457C61.0836 42.3331 60.6681 42.8002 60.0948 43.6467C59.5792 44.4056 58.9916 45.4127 58.3327 46.6679C57.6734 47.9232 57.0286 49.244 56.3981 50.6305C55.7678 52.0172 55.1802 53.3745 54.636 54.7026C54.0915 56.0309 53.6472 57.1327 53.3035 58.0085C54.0768 57.2204 54.8364 56.3228 55.5814 55.3158C56.3265 54.3087 57.0429 53.2578 57.7306 52.163C58.4183 51.0685 59.049 49.9592 59.6221 48.8353C60.1951 47.7115 60.6967 46.6388 61.1265 45.6172ZM71.637 53.805C71.0872 53.2796 70.4067 53.141 69.5962 53.3891C68.7856 53.6372 67.9389 54.1335 67.0559 54.8778C66.1728 55.6222 65.3186 56.5271 64.4938 57.5925C63.6686 58.658 62.9666 59.7307 62.3875 60.8109C61.6639 62.1828 61.266 63.3505 61.1935 64.3137C61.1211 65.2769 61.273 65.9337 61.6493 66.284C62.0257 66.6343 62.583 66.6198 63.3214 66.2404C64.0595 65.8608 64.8917 65.0143 65.8183 63.7008C66.6287 62.5622 67.5478 61.1101 68.5757 59.344C69.6032 57.578 70.6239 55.7317 71.637 53.805ZM84.562 58.4465C85.1967 57.9501 85.7285 57.3955 86.1566 56.7826C86.5853 56.1695 86.8791 55.6004 87.0376 55.0749C87.1963 54.5495 87.228 54.1115 87.133 53.7612C87.0376 53.4109 86.7993 53.2432 86.4185 53.2578C86.038 53.2723 85.5142 53.5058 84.8478 53.9584C84.1814 54.4107 83.3561 55.1769 82.3722 56.2572C81.7377 56.9575 81.1583 57.7165 80.6345 58.5339C80.1109 59.3513 79.7379 59.9642 79.5158 60.3729C79.7379 60.3729 80.0397 60.3366 80.4202 60.2634C80.8012 60.1905 81.2299 60.0737 81.7058 59.9133C82.1821 59.7527 82.6658 59.5483 83.1577 59.3002C83.6496 59.0521 84.1176 58.7675 84.562 58.4465Z" fill="#2B2A29"/>
<path fill-rule="evenodd" clip-rule="evenodd" d="M91.9614 23.9751C91.6544 24.1458 91.6861 24.3385 91.2031 24.5341C91.0706 24.5877 90.4096 24.5931 90.2931 24.5324C90.2061 24.4869 90.1482 24.4562 90.0523 24.4154C89.9205 24.3591 89.8881 24.2836 89.7069 24.0993C89.5603 23.95 89.5416 23.8391 89.4518 23.6937C89.3638 23.5514 89.418 23.2606 89.4136 23.0712C89.4072 22.7907 89.445 22.7422 89.5603 22.5345C89.6569 22.3605 89.931 22.0974 90.0616 22.0402C90.5772 21.8137 90.256 21.8957 90.9125 21.8913C91.0933 21.8901 91.0931 21.8739 91.2061 21.9333C91.3416 22.0041 91.3168 21.9293 91.4507 22.0491C91.5203 22.1117 91.5836 22.1305 91.6465 22.1834C91.7114 22.2383 91.7508 22.2934 91.8012 22.3623C91.8568 22.4386 91.9067 22.4824 91.9452 22.5509C91.948 22.556 91.9515 22.5626 91.9543 22.5682C92.1051 22.8648 92.088 23.0416 92.0934 23.4041C92.095 23.5195 92.0927 23.6072 92.046 23.6944C91.9644 23.8473 91.974 23.7263 91.9614 23.9751ZM115.664 19.1463L115.326 19.4134C115.251 19.4656 115.259 19.4319 115.243 19.5203C115.12 19.581 115.217 19.57 115.1 19.6488C115.034 19.6936 115 19.6938 114.924 19.7517C114.813 19.8368 114.721 19.9208 114.596 19.9787C114.359 20.0884 114.428 20.0511 114.13 20.049C113.938 20.0478 113.783 20.0495 113.619 20.0066C113.545 19.8847 113.529 19.9355 113.484 19.8652C113.484 19.8643 113.458 19.7984 113.444 19.778C113.387 19.6912 113.444 19.7585 113.357 19.7041C113.154 19.5777 113.251 19.5496 113.104 19.3962C112.709 18.985 112.736 18.8403 112.444 18.9123C112.358 19.087 112.363 19.0541 112.206 19.1747L112.177 19.1969C111.751 19.5128 111.989 19.4272 111.604 19.6699C111.598 19.6741 111.578 19.6865 111.572 19.691C111.289 19.8854 111.532 19.7941 111.121 19.8715C110.859 19.9208 110.682 19.9022 110.401 19.9156C110.089 19.9304 109.961 19.9538 109.764 19.7988C109.545 19.6258 109.477 19.7189 109.047 19.3651C108.963 19.2964 108.886 19.2924 108.825 19.2056C108.742 19.0853 108.719 18.999 108.605 18.867L108.476 18.7564C108.485 18.6462 108.21 18.3186 108.404 18.083C108.569 17.8818 108.554 17.8998 108.808 18.0009L109.608 18.2497C109.869 18.2886 109.887 18.2119 110.072 18.1774C110.226 18.1488 110.389 18.1371 110.551 18.1097C110.8 18.0675 110.755 17.9416 110.86 17.8839C111.095 17.6534 111.132 17.5308 111.199 17.4524L111.223 17.4283C111.528 17.1183 111.545 16.7244 111.604 16.6081C111.707 16.406 111.804 15.9896 111.877 15.8568C111.95 15.726 111.903 15.7361 111.923 15.5832L112.024 14.9959C112.067 14.4856 112.053 14.2423 112.342 13.9543C112.669 13.9196 112.869 13.9257 113.001 14.1332C113.056 14.2202 113.12 14.2472 113.152 14.3797C113.179 14.4906 113.196 14.6303 113.225 14.745C113.296 15.0289 113.357 15.6189 113.21 15.8904C113.148 16.0043 113.119 16.0496 113.068 16.1879C113.028 16.2953 112.989 16.3183 112.954 16.4716C112.901 16.6965 112.929 17.0142 112.934 17.2461C112.94 17.4909 113.066 17.565 113.261 17.7573C113.425 17.9198 113.258 17.8091 113.555 17.9083C113.663 17.9444 113.739 17.9924 113.874 18.0262C114.243 18.1186 113.929 18.1327 114.232 18.1392C114.22 17.8623 114.147 18.0464 113.959 17.7249C113.879 17.588 113.809 17.6696 113.804 17.2198C113.798 16.6745 113.82 16.9687 113.868 16.6072C113.88 16.5162 113.885 16.3961 113.909 16.3218C113.939 16.2313 113.983 16.2348 114.028 16.1206C114.067 16.0421 114.114 15.9619 114.157 15.869C114.348 15.4615 114.408 15.4779 114.463 15.356L114.77 14.8444C114.876 14.7098 114.842 14.7175 114.913 14.5768C115.06 14.2875 115.035 13.4078 114.921 13.1154C114.866 12.974 114.893 12.9229 114.847 12.7773L114.727 12.4893C114.676 12.3967 114.591 12.3458 114.537 12.2694C114.451 12.1451 114.521 12.2016 114.365 12.0305L114.327 11.9897C114.214 11.8738 114.112 11.6726 113.924 11.6623C113.847 11.5362 113.644 11.5123 113.498 11.4675C112.711 11.2274 113.072 11.4121 112.522 11.4771C112.214 11.5134 111.974 11.9242 111.744 12.0771C111.661 12.1322 111.711 12.0703 111.661 12.1388C111.627 12.1868 111.672 12.1289 111.637 12.188L111.509 12.3707C111.484 12.4091 111.505 12.3779 111.476 12.4169L111.288 12.6875C111.106 12.9433 111.216 12.6619 111.049 13.0882C110.968 13.295 110.938 13.2938 110.923 13.5656C110.897 14.0317 110.909 15.7241 110.84 15.9497C110.701 16.3992 110.632 16.617 110.395 17.0353C110.299 17.2048 110.288 17.0508 110.222 17.1941C109.859 17.2642 110.029 17.4145 109.608 17.2635C109.096 17.0801 109.381 17.1519 109.158 16.8529C109.036 16.6892 109.086 15.4627 109.214 15.2634C109.263 15.1867 109.311 15.148 109.35 15.0716L109.425 14.9386C109.428 14.934 109.433 14.9283 109.437 14.9239C109.647 14.6355 109.697 14.4805 109.824 14.1379C109.863 14.0352 109.865 13.948 109.901 13.8572L110.001 13.6279C110.052 13.4926 110.074 13.5151 110.074 13.3365C110.074 12.8947 110.091 11.4912 110.06 11.2499C110.008 10.8386 110.077 10.4965 109.943 9.98701C109.895 9.8006 109.882 9.61185 109.837 9.40786C109.79 9.19917 109.759 9.02824 109.702 8.82495C109.658 8.66621 109.546 8.50185 109.488 8.34991C109.458 8.273 109.444 8.16537 109.414 8.0887C109.37 7.98037 109.368 8.03501 109.317 7.88635C109.284 7.79045 109.167 7.47555 109.116 7.38879C109.066 7.30438 109.006 7.28469 108.992 7.17425C108.935 6.72218 108.85 6.87928 108.841 6.64176C108.829 6.321 108.733 6.0619 108.659 5.75192L108.356 4.65669C108.264 4.35586 108.279 4.36383 108.229 4.09302C108.206 3.97109 108.209 3.89676 108.193 3.78257C108.18 3.68433 108.136 3.60343 108.112 3.51175C108.066 3.32628 108.067 3.10283 108.013 2.91924L107.897 2.32179C107.866 2.11335 107.817 1.96399 107.783 1.7546C107.759 1.60102 107.725 1.61251 107.707 1.50137L107.457 0.158765C107.413 0.0785751 107.418 0.0928776 107.336 0.0776367C107.263 0.178226 107.285 0.30156 107.285 0.430756C107.247 0.454203 107.228 0.461706 107.191 0.486561C107.164 0.908615 107.194 1.34685 107.164 1.75859C107.15 1.95437 107.055 2.16399 107.002 2.55721L106.754 3.91411C106.617 4.13217 106.743 4.00767 106.655 4.27872L106.535 4.66982C106.471 4.86678 106.306 5.49986 106.286 5.69471C106.271 5.84173 106.229 5.82766 106.198 5.93857C106.164 6.06049 106.207 6.06917 106.149 6.19227C105.982 6.54844 105.775 7.40099 105.621 7.68165L105.563 7.86735C105.492 8.23806 105.431 8.20523 105.406 8.3553C105.327 8.84512 105.248 8.57547 105.282 8.8974C105.19 8.96751 105.06 9.46882 105.025 9.602C104.995 9.71525 104.963 9.73776 104.937 9.83812C104.857 10.1493 104.819 10.1924 104.784 10.3277C104.755 10.4414 104.764 10.5136 104.761 10.6281C104.757 10.7619 104.716 10.7608 104.704 10.8815L104.637 11.4532C104.611 11.6225 104.619 11.9067 104.625 12.0842L104.695 12.9768C104.696 13.0235 104.694 13.0898 104.697 13.1332C104.704 13.2481 104.677 13.2307 104.751 13.2781C104.737 13.4443 104.867 13.7217 104.876 13.9217C104.907 14.5642 104.998 14.4751 105.123 14.8538C105.203 15.0971 105.458 15.3302 105.511 15.6622C105.549 15.8993 105.623 15.892 105.623 16.3507C105.622 16.6843 105.645 16.7174 105.5 17.0189C105.407 17.2133 105.293 17.3244 105.058 17.3718C104.785 17.4269 104.546 17.3577 104.374 17.2424C104.223 17.1415 104.292 17.1786 104.198 17.0356C104.163 16.9812 104.176 17.0112 104.153 16.9797L104.046 16.7809C104.007 16.6058 104.049 16.624 103.972 16.4201L103.943 16.2941C103.905 16.1239 103.877 15.9464 103.905 15.7701L103.941 15.4052C103.953 15.0575 103.959 14.6805 103.912 14.3166L103.781 13.2441C103.755 13.0546 103.687 12.9791 103.614 12.8216C103.494 12.5644 103.307 12.464 103.144 12.2647C102.715 11.7364 102.857 11.9674 102.429 11.8075C102.246 11.7395 101.512 11.7266 101.307 11.7369C101.116 11.7465 100.894 11.8755 100.718 11.9301C100.554 11.9807 100.294 12.0832 100.188 12.1904L99.994 12.3796C99.7323 12.7034 99.7166 12.7411 99.5457 13.1301C99.416 13.4249 99.3841 13.3763 99.3879 13.7956C99.3909 14.1248 99.4223 14.5091 99.6144 14.7485C99.6824 14.8331 99.707 14.9189 99.7684 15.0015C99.8231 15.0746 99.9124 15.1178 99.971 15.1839L100.162 15.4024C100.308 15.5464 100.202 15.5295 100.309 15.6639C100.417 15.7996 100.493 16.0332 100.549 16.2205C100.637 16.5153 100.868 16.7549 100.897 17.0674C100.917 17.2745 100.91 17.6457 100.863 17.8257C100.821 17.9927 100.554 18.1191 100.549 18.3113C100.754 18.3284 101.257 18.2103 101.406 18.0328C101.41 18.0286 101.415 18.0225 101.418 18.0178L101.443 17.9655C101.474 17.9083 101.495 17.9099 101.545 17.8675L101.723 17.6353C101.818 17.4625 101.818 17.0175 101.763 16.8121L101.642 16.3174C101.605 16.2135 101.579 16.1945 101.557 16.0707C101.514 15.8172 101.381 15.6522 101.286 15.4287C101.208 15.2439 101.258 15.2385 101.237 15.0209C101.222 14.8575 101.169 14.8505 101.164 14.613C101.159 14.3806 101.166 14.405 101.281 14.2795C101.386 14.1639 101.417 14.1304 101.615 14.1194C102.127 14.0913 102.103 14.2814 102.263 14.4258C102.418 14.5649 102.41 14.7152 102.478 14.9009C102.575 15.1637 102.945 16.3483 102.966 16.5054C102.983 16.6409 103.02 16.6639 103.06 16.8726C103.129 17.2281 103.326 17.5376 103.56 17.7781C103.766 17.9899 103.811 18.0754 104.168 18.1106C104.505 18.1439 104.73 18.1139 105.063 18.1179C105.321 18.1212 105.298 18.1683 105.445 18.1789C105.61 18.1908 105.758 18.1669 105.935 18.1873C105.97 18.327 105.998 18.3519 105.948 18.509C105.916 18.6103 105.915 18.7177 105.871 18.7946C105.823 18.8778 105.771 18.9121 105.725 19.0054C105.54 19.3805 105.615 19.4324 105.216 19.5728C104.951 19.6661 104.689 19.9496 104.045 19.845C103.852 19.8138 103.589 19.8145 103.377 19.8075C103.255 19.8035 103.139 19.8024 103.018 19.8017C102.707 19.8 102.506 19.4176 102.256 19.2851C102.085 19.1939 101.858 18.9707 101.64 19.2124C101.504 19.3625 101.407 19.3904 101.233 19.5217C101.097 19.6256 100.92 19.6964 100.769 19.7761C100.631 19.8488 100.683 19.8542 100.466 19.8584C99.9881 19.8673 99.8489 19.8115 99.5011 19.5627L99.1532 19.3498C99.0892 19.2933 99.1508 19.3266 99.0542 19.2685C99.0008 19.2366 98.9911 19.2361 98.9356 19.2115C98.6125 19.0687 98.5168 19.31 98.2343 19.5095L97.6582 20.0073C97.5981 20.0668 97.554 20.1255 97.445 20.1477L96.7866 20.2143C96.6018 20.2202 96.5983 20.2068 96.4628 20.143L95.7786 19.7613C95.6489 19.6863 95.6775 19.68 95.618 19.5365L95.3835 19.0572C95.3249 18.9503 95.2782 18.9468 95.2133 18.8706L95.112 18.6996C95.0229 18.4649 95.1007 18.2175 95.1385 18.0063C95.1978 17.6733 95.0728 17.7547 95.2822 17.4794L95.3662 17.3514C95.4642 17.2191 95.5922 17.115 95.7418 17.0534C95.8869 16.9938 96.1017 16.9821 96.2506 16.9812C96.3193 16.9804 96.6239 17.0135 96.6966 17.0602L97.0302 17.407C97.0328 17.4105 97.0368 17.4168 97.0389 17.4208C97.1245 17.5727 97.1514 18.0811 97.1282 18.2302C97.1092 18.3519 97.0942 18.4107 97.0877 18.5489C97.0788 18.7367 97.0328 18.731 97.0237 18.8963C97.1965 18.8755 97.1409 18.8574 97.2216 18.7491C97.2673 18.6877 97.3383 18.6663 97.4105 18.6124C97.5259 18.5266 97.5426 18.3198 97.6209 18.1777C97.6729 18.0832 97.6856 18.1022 97.7208 17.9777C97.8298 17.5908 97.853 17.611 97.8535 17.1429C97.8539 16.6299 97.8603 16.761 97.7367 16.3178C97.6889 16.1455 97.5721 15.6983 97.4746 15.6125C97.4389 15.5811 97.4101 15.5684 97.3862 15.5476C97.0551 15.2594 97.2814 15.2901 96.7031 15.0843C96.5589 15.0329 96.3714 14.9396 96.2253 14.9297C95.5467 14.884 95.2991 15.1173 94.8616 15.4967L94.6663 15.6854C94.591 15.7938 94.5621 15.9532 94.4716 16.051C94.4036 16.1244 94.4454 16.0418 94.3987 16.1363C94.3432 16.2484 94.3563 16.5577 94.2189 16.6278C94.1087 16.6841 94.0627 16.6391 94.0329 16.576C94.0121 16.5317 94.0215 16.5619 94.0137 16.5073C93.9898 16.3368 94.0177 16.1373 94.0102 15.9661C94.0029 15.8076 93.9656 15.873 93.9581 15.6883C93.9427 15.3126 93.9391 15.4782 93.9002 15.2517C93.8719 15.0859 93.8866 14.9061 93.8552 14.7581C93.8116 14.5543 93.8402 14.2863 93.7234 13.8645C93.6955 13.7632 93.6604 13.6837 93.6425 13.5853C93.6039 13.3728 93.5462 13.279 93.4632 13.0809C93.3101 12.7154 93.3133 12.6839 93.0451 12.3782C92.9907 12.3158 93.0374 12.3693 93.0024 12.3142L92.7661 12.0445C92.695 11.9489 92.692 11.9378 92.6078 11.844C92.5426 11.7714 92.5274 11.746 92.4648 11.6562L92.1707 11.2602C92.0099 11.0271 91.8601 10.9291 91.7161 10.6637C91.6368 10.5174 91.5015 10.4213 91.3986 10.2944C91.3421 10.2248 91.3255 10.1593 91.269 10.0911C91.2031 10.0116 91.1681 9.97294 91.1074 9.89462L90.6314 9.32368C90.5231 9.19659 90.6035 9.18135 90.4391 9.13188C90.3855 9.26787 90.4565 10.0501 90.4924 10.2229L90.6579 12.467C90.6581 12.6145 90.7463 13.6694 90.7958 13.8054C90.8295 13.8976 90.8192 13.9703 90.8427 14.0657C90.9484 14.4917 91.2089 14.9021 91.5088 15.2179C91.6118 15.3262 91.6704 15.4362 91.7672 15.5469C91.8193 15.6064 91.8711 15.6374 91.914 15.7028L92.5145 16.4681C92.6047 16.6801 92.2648 16.6787 92.1037 16.7134C92.0277 16.7298 91.9907 16.7661 91.9098 16.7769C91.6737 16.8079 91.5817 16.5997 91.3227 16.5865C90.7583 16.5579 90.7322 16.5968 90.3714 16.9347C90.2577 17.0412 90.1001 17.2299 90.0652 17.3884C90.0511 17.4513 90.0373 17.8295 90.0398 17.9094C90.0546 18.365 90.1733 18.6909 90.5372 18.9491C90.6802 19.0504 90.8253 19.219 90.9995 19.2762C91.4164 19.4129 91.6211 19.4694 92.0889 19.4621C92.1464 19.4612 92.4861 19.3864 92.5196 19.366C92.5126 19.2314 92.4777 19.2741 92.3733 19.207C92.2519 19.1292 92.0559 19.0584 91.9119 19.0002C91.7836 18.9482 91.6676 18.9536 91.5325 18.8945C91.4708 18.8673 91.4978 18.8872 91.4425 18.8351C91.404 18.7993 91.3982 18.7847 91.3637 18.7596C91.3041 18.7158 91.2943 18.7273 91.2457 18.6956C90.9721 18.517 91.1543 17.595 91.985 17.6825C92.1782 17.7029 92.3325 17.7863 92.4868 17.844C92.7351 17.9369 92.941 17.9545 93.1014 18.1983L93.5246 18.7721C93.6777 18.9545 93.6329 19.0478 93.6315 19.3404C93.6296 19.676 93.5903 19.8628 93.4683 20.1599C93.4071 20.3091 93.3 20.4275 93.1933 20.5487C93.1701 20.5752 93.1792 20.563 93.1572 20.5893C93.1471 20.601 93.1258 20.6293 93.1218 20.6333C93.027 20.7302 92.8296 20.8195 92.6929 20.8685C92.1114 21.077 91.8966 20.8347 91.7299 20.808C91.3358 20.7447 91.5008 20.7942 91.2722 20.5921C91.23 20.5548 91.2202 20.5574 91.185 20.5257C91.151 20.4952 91.1341 20.4643 91.0994 20.4312C91.0403 20.3745 90.9859 20.3571 90.9107 20.2877C90.6497 20.0467 90.5916 19.8699 90.3179 20.381C90.2656 20.4786 90.1707 20.5836 90.1341 20.6809C90.0952 20.7848 90.0992 20.8385 90.0368 20.9187C89.8389 21.1724 89.8457 21.0669 89.6741 21.2198C89.3474 21.51 89.5076 21.4388 88.9704 21.5093C88.7362 21.54 88.3254 21.6521 88.1038 21.5126L87.024 20.9302C86.9073 20.839 86.8156 20.7063 86.707 20.6089C86.5305 20.4507 86.3787 20.2661 86.1961 20.1194C86.1926 20.1165 86.1865 20.1119 86.1832 20.1088L85.7103 19.6216C85.6666 19.4696 86.1178 19.132 86.2486 19.0722C86.4252 18.9918 87.0632 18.947 87.2029 19.0656L87.492 19.3601C87.4953 19.3644 87.5 19.3704 87.5033 19.3747L87.7101 19.6537C87.9296 20.0099 87.7598 20.423 87.8634 20.6244C87.9896 20.605 88.028 20.4934 88.0939 20.3782C88.1319 20.3121 88.1443 20.2525 88.1671 20.2129C88.1854 20.1806 88.2358 20.1337 88.2642 20.0901C88.4951 19.7337 88.3282 18.7144 88.0785 18.3662C87.9375 18.1692 87.9676 18.154 87.7328 17.9992C87.5563 17.8825 87.3122 17.7924 87.1101 17.7017C86.9314 17.6215 86.9839 17.6112 86.7237 17.6236C86.1684 17.6499 86.0978 17.7176 85.8821 17.7376C85.7107 17.7533 85.5818 17.7296 85.4413 17.7833L85.1356 17.9324C85.0204 18.0161 84.8973 18.1094 84.7604 18.0332C84.6744 17.9852 84.6617 17.8895 84.5958 17.8161C84.441 17.644 84.3681 17.4281 84.2382 17.2485C84.1287 17.0968 83.879 16.8158 83.7339 16.7092L83.6117 16.5767C83.5353 16.4686 83.4457 16.3886 83.34 16.3117C83.214 16.2203 83.1714 16.1661 83.0731 16.0414C82.9718 15.9134 82.8757 15.9023 82.7606 15.8163C82.6234 15.7138 82.4895 15.545 82.3263 15.4899C82.2208 15.4545 82.2086 15.4815 82.1265 15.4043C82.0583 15.3398 82.0886 15.3436 81.9868 15.284L81.7999 15.1912C81.6735 15.1309 81.7626 15.13 81.6557 15.0871C81.4785 15.0158 81.2341 14.9351 81.0325 14.9051C80.9087 14.8868 80.7856 14.8036 80.6585 14.7536C80.4747 14.6817 80.0432 14.6458 79.8252 14.658C79.4207 14.681 80.0029 15.0322 80.0859 15.1222C80.303 15.3586 80.5654 15.5898 80.8177 15.7706L82.3699 17.18C82.6171 17.4088 82.7259 17.6243 82.92 17.8818L83.245 18.3233C83.2926 18.3756 83.3449 18.4182 83.373 18.4504C83.4532 18.5421 83.4007 18.524 83.4495 18.63L83.7707 19.0469C83.8469 19.1648 83.9142 19.2424 83.9883 19.3397L84.6901 20.3787C84.8298 20.5817 85.001 20.7592 85.1095 20.9827C85.2129 21.1949 85.551 21.703 85.6589 21.9082L86.3122 23.0201C86.3452 23.0723 86.3511 23.1528 86.3916 23.2013C86.4683 23.2932 86.5157 23.3031 86.5916 23.4995C86.6547 23.6632 86.6791 23.6681 86.7785 23.8027L87.4039 24.9502C87.448 25.0417 87.7389 25.441 87.8705 25.7348C87.9049 25.8122 87.9136 25.8495 87.9835 25.8684C88.1089 25.9022 88.3676 25.8743 88.4515 25.8218C88.693 25.6708 89.1282 25.6727 89.4171 25.5831C89.4783 25.5641 89.5134 25.5399 89.611 25.5205C89.7596 25.4909 89.8924 25.4326 90.0183 25.4176C90.1557 25.4014 90.3097 25.3857 90.4251 25.3381C90.6818 25.2316 90.9712 25.2279 91.2317 25.1329C91.4894 25.0393 91.8209 25.0164 92.0781 24.9739C92.1403 24.9636 92.2319 24.9648 92.3074 24.9486L93.745 24.6574C93.8273 24.6318 93.8908 24.6471 93.9746 24.6316C94.0529 24.6173 94.0697 24.5922 94.1694 24.5749L95.0433 24.422C95.1596 24.3709 95.3394 24.3948 95.482 24.369L95.8982 24.2764C95.9697 24.2642 96.0473 24.2618 96.1024 24.2485L96.9423 24.0942C97.106 24.0773 97.0349 24.0778 97.1364 24.0414L98.5227 23.9075C99.1407 23.9028 99.7825 23.8698 100.41 23.7894C100.703 23.7516 101.055 23.7758 101.349 23.7277C101.654 23.678 101.994 23.7125 102.28 23.6653C102.542 23.6222 103.95 23.5751 104.215 23.606C104.789 23.6724 105.57 23.6135 106.185 23.6597L107.617 23.7075C107.802 23.7085 107.914 23.7404 108.077 23.7479C108.736 23.7786 109.412 23.7758 110.069 23.7905C110.393 23.7978 110.664 23.8506 110.988 23.8503C111.336 23.8501 112.379 23.8703 112.756 23.9594C113.039 24.0264 113.499 24.0077 113.845 24.0386C114.139 24.0651 114.427 24.1059 114.738 24.1333C114.878 24.1455 115.038 24.1652 115.203 24.1666C115.283 24.1673 115.371 24.1563 115.432 24.1777C115.663 24.2595 116.022 24.2562 116.286 24.3083C116.364 24.3237 116.451 24.3193 116.531 24.3212C116.857 24.3287 117.128 24.3992 117.451 24.4182C117.616 24.4281 117.757 24.4156 117.902 24.4562C118.3 24.5669 118.881 24.5101 119.302 24.5727L119.981 24.6372C120.119 24.6386 120.091 24.6508 120.19 24.671C120.313 24.6954 120.558 24.6933 120.696 24.7008C120.88 24.7108 120.939 24.7577 121.109 24.7885C121.35 24.8321 121.739 24.9481 121.919 24.9655L122.558 25.0698C122.719 25.0867 122.608 25.1052 122.742 25.1343L124.801 25.5761C124.891 25.6023 124.944 25.5871 125.035 25.6004C125.238 25.6305 125.382 25.7221 125.626 25.7409C125.838 25.7575 125.874 25.8157 126.059 25.8272C126.092 25.8291 126.126 25.8279 126.158 25.8333C126.241 25.8476 126.319 25.9299 126.411 25.8539C126.526 25.7594 126.586 25.5045 126.82 25.2387C126.864 25.1887 126.892 25.1512 126.93 25.0947C126.969 25.0372 126.997 25.0107 127.019 24.9085L127.575 24.0794C127.626 23.9922 127.65 23.9934 127.696 23.9204C127.862 23.6578 128.195 23.0688 128.365 22.8512C128.429 22.7687 128.792 22.1619 128.942 21.9968C129 21.9323 129.012 21.8946 129.056 21.8289L129.805 20.8404C129.887 20.6952 129.948 20.6415 130.033 20.5037C130.082 20.4254 130.109 20.4246 130.164 20.3559L130.646 19.6898C130.705 19.6124 130.745 19.5909 130.789 19.5245C130.887 19.3761 130.916 19.3048 131.013 19.1857C131.218 18.9339 131.415 18.6309 131.632 18.3749L131.877 18.0304C132.142 17.5427 132.116 17.7999 132.241 17.5291L132.746 16.8857C132.835 16.7828 132.807 16.8613 132.882 16.7403L134.63 15.0367C134.662 15.0127 134.667 15.0029 134.699 14.9776C134.806 14.8934 135.059 14.7199 135.087 14.6012C134.82 14.6059 134.681 14.7321 134.457 14.7883C134.215 14.8491 134.339 14.88 134.052 14.9248C133.927 14.9443 133.781 15.0172 133.663 15.0667C133.538 15.1192 133.555 15.0735 133.36 15.1752C133.288 15.213 133.34 15.1776 133.279 15.2207C133.058 15.3785 133.175 15.353 132.772 15.5312C132.546 15.6313 132.594 15.7124 132.3 15.8491C132.179 15.9056 132.069 16.0214 131.972 16.0639C131.887 16.1009 131.848 16.0798 131.782 16.1476C131.721 16.2095 131.749 16.229 131.669 16.2923C131.515 16.414 131.576 16.228 131.319 16.6018L131.004 16.9772L130.827 17.339C130.755 17.5118 130.702 17.4998 130.634 17.6782L130.279 18.4004C130.045 18.41 130.168 18.391 129.952 18.1789L129.407 17.6513C129.323 17.5922 129.101 17.5697 128.993 17.5265L128.576 17.4093C128.456 17.3877 128.22 17.44 128.113 17.4677C128.032 17.4886 127.979 17.4841 127.886 17.5007C127.753 17.5242 127.3 17.6182 127.219 17.6675L127.04 17.7486C126.933 17.796 127.014 17.8046 126.872 17.8616C126.701 17.9303 126.836 17.848 126.619 18.1366C126.429 18.3882 126.523 18.308 126.429 18.4921C126.393 18.5632 126.356 18.5932 126.331 18.6804C126.277 18.8708 126.359 18.6898 126.253 18.9282C126.145 19.1721 126.271 19.5386 126.305 19.7046C126.379 20.0619 126.382 20.0049 126.668 20.3142C126.743 20.3951 126.732 20.4171 126.864 20.4282C126.867 20.1069 126.809 19.5383 126.891 19.2506C126.961 19.0021 126.892 19.1908 127.013 18.9667C127.088 18.8265 127.191 18.7294 127.333 18.6741C127.56 18.5852 127.576 18.6232 127.898 18.6288C128.007 18.6309 128.176 18.6945 128.211 18.6809C128.249 18.7859 128.21 18.7116 128.27 18.7887C128.431 18.992 128.646 18.9707 128.661 19.4415C128.673 19.8049 128.565 20.0657 128.374 20.3559L127.836 20.9907C127.682 21.1103 127.647 21.0741 127.503 21.2425L127.477 21.2718C127.381 21.364 127.242 21.4242 127.126 21.4831C127.06 21.5168 126.775 21.6458 126.714 21.6603C126.575 21.6934 126.174 21.6479 126.066 21.6113L125.74 21.4763C125.63 21.4226 125.353 21.2681 125.29 21.1775C125.13 20.9496 124.869 20.9403 124.712 20.7107C124.239 20.0204 124.393 20.0772 124.296 19.9217C124.092 19.8884 124.048 20.0272 123.94 20.1592C123.893 20.2171 123.86 20.2575 123.816 20.3154C123.743 20.411 123.477 20.5553 123.354 20.6028C123.166 20.6755 123.011 20.7649 122.738 20.7569C122.392 20.7466 122.006 20.6903 121.699 20.6054C121.178 20.461 121.327 20.1189 121.191 19.9163C121.03 19.6769 120.969 19.3001 121.015 18.9395C121.062 18.5709 121.151 18.3751 121.444 18.1756C121.994 17.8011 121.749 17.9535 122.325 18.0346C122.445 18.0515 122.674 18.1223 122.763 18.1683C122.912 18.2447 122.995 18.3029 123.115 18.4206C123.183 18.5601 122.973 18.9873 122.863 19.0567C122.802 19.0961 122.774 19.0752 122.702 19.1017C122.651 19.1205 122.611 19.1658 122.55 19.1845C122.406 19.2284 122.328 19.1334 122.144 19.1282C122.16 19.2481 122.298 19.3728 122.405 19.4199C122.678 19.5409 123.046 19.4875 123.309 19.3477C123.835 19.0682 123.642 19.0924 123.95 18.8928C124.074 18.8129 124.109 18.6912 124.207 18.5866C124.396 18.3857 124.321 17.9781 124.397 17.6642C124.427 17.5437 124.485 17.3364 124.428 17.1701C124.402 17.093 124.376 17.1068 124.337 17.0091C124.335 17.0034 124.333 16.9962 124.331 16.9905C124.271 16.8346 124.223 16.7713 124.083 16.6867C124.079 16.6841 124.072 16.6801 124.068 16.6775L124.021 16.6491C123.862 16.5645 123.651 16.4951 123.481 16.4644C123.214 16.4161 122.706 16.4426 122.494 16.5879C122.232 16.768 122.263 16.678 122.123 16.7582C121.929 16.8693 121.981 16.8562 121.687 16.8379C121.664 16.6864 121.853 16.5861 121.941 16.4991L122.585 15.8658C122.673 15.7858 122.659 15.7584 122.741 15.692C122.985 15.4939 123.404 15.0158 123.55 14.7377C123.638 14.5675 123.757 14.3865 123.829 14.2008C123.853 14.1393 123.844 14.1468 123.859 14.0805C123.873 14.02 123.882 14.0078 123.903 13.9456C123.955 13.7897 123.927 13.5287 123.978 13.3665C124.015 13.2476 124.044 13.2896 124.056 13.1571C124.066 13.0502 124.052 12.9344 124.066 12.8249C124.118 12.4187 124.106 11.9969 124.083 11.5723C124.059 11.1434 124.06 10.7275 124.01 10.339C123.984 10.1371 123.994 9.93707 123.978 9.7312C123.969 9.61466 123.988 9.19988 123.913 9.09507C123.758 9.11359 123.8 9.17315 123.695 9.28429L122.473 11.0527C122.287 11.3181 121.691 12.1371 121.644 12.3156C121.549 12.6821 121.166 12.8401 121.013 13.5252C120.971 13.7116 120.906 13.7747 120.883 13.9063C120.857 14.0509 120.871 14.2772 120.862 14.4341C120.783 14.5171 120.801 14.4439 120.779 14.5841C120.737 14.8472 120.739 15.0852 120.734 15.3541C120.731 15.5335 120.733 15.7112 120.731 15.8906C120.729 15.9741 120.734 16.0672 120.73 16.1485L120.643 16.3706L120.408 16.2822C120.352 16.2491 120.273 16.2236 120.201 16.1844C119.913 16.0275 119.551 15.4925 119.239 15.2505L118.849 15.0289C118.69 14.9961 118.453 14.9361 118.293 14.934C118.059 14.9309 117.951 14.9973 117.778 15.0664C117.678 15.1061 117.176 15.5014 117.073 15.6151C116.995 15.7005 116.925 15.9462 116.902 16.0843C116.862 16.3227 116.892 16.1727 116.808 16.2953C116.688 16.4688 116.745 16.9905 116.754 17.1945C116.769 17.5394 116.874 17.4161 116.898 17.6782C116.915 17.8543 117.018 17.9603 117.126 18.079L117.43 18.4175C117.541 18.5362 117.586 18.7179 117.801 18.6727C117.8 18.5451 117.769 18.4464 117.708 18.3413C117.67 18.2769 117.659 18.2717 117.626 18.2138C117.346 17.7216 117.377 17.5136 117.537 17.0069C117.601 16.8032 117.602 16.8775 117.718 16.7471C117.826 16.624 117.894 16.4859 118.089 16.4745C118.223 16.4665 118.208 16.493 118.281 16.5122C118.718 16.6255 118.568 16.3922 118.918 16.7483C119.053 16.8867 119.264 17.0182 119.369 17.1645C119.681 17.6004 119.708 17.2109 119.669 18.6002C119.661 18.8647 119.559 19.0269 119.42 19.2148C119.12 19.6227 118.861 19.6776 118.737 19.8354C118.683 19.9048 118.6 20.0291 118.545 20.0767C118.453 20.1571 118.036 20.2275 117.867 20.2577C117.613 20.303 117.374 20.2396 117.122 20.1679C116.93 20.113 116.605 19.9135 116.456 19.7686L116.153 19.4199C116.083 19.306 115.977 19.1114 115.837 19.0736C115.717 19.0412 115.701 19.0839 115.664 19.1463ZM117.042 21.7853L117.058 21.8073C117.098 21.9499 117.119 22.5612 117.051 22.7227C116.897 23.0925 116.977 22.9649 116.634 23.3021C116.278 23.6524 116.053 23.5781 115.612 23.6137C115.513 23.6217 115.385 23.6327 115.299 23.5865L115.078 23.4733C114.889 23.3915 114.557 23.0395 114.47 22.7495C114.385 22.4639 114.418 22.4838 114.412 22.1513C114.408 21.9302 114.437 21.7544 114.527 21.6005L114.76 21.3431C114.807 21.3002 114.799 21.3283 114.857 21.2699C114.949 21.1771 114.973 21.1079 115.121 21.0197C115.126 21.0167 115.132 21.0129 115.137 21.0101C115.142 21.0073 115.149 21.0038 115.155 21.0012C115.338 20.914 115.647 20.9414 115.867 20.944C116.278 20.9489 116.12 20.9442 116.385 21.092C116.458 21.1323 116.548 21.1494 116.613 21.2005C116.697 21.2662 116.638 21.2887 116.833 21.4655C116.89 21.5178 116.873 21.4974 116.916 21.5621C116.983 21.6629 116.951 21.7166 117.042 21.7853ZM95.0055 30.395C95.2013 30.3898 95.3104 30.3507 95.4607 30.3401C95.6004 30.3303 95.8096 30.346 95.9399 30.3218C96.03 30.3054 96.006 30.2845 96.1233 30.2749L97.6811 30.1514C97.9995 30.1436 98.2324 30.0878 98.5494 30.0841C98.8924 30.0801 99.136 30.0334 99.469 30.0215C100.09 29.9994 100.639 29.9891 101.261 29.916C101.525 29.8848 101.925 29.8979 102.202 29.8951C102.526 29.8918 102.849 29.889 103.173 29.8852C103.477 29.8817 103.783 29.8475 104.066 29.8412C105.305 29.8144 106.661 29.877 107.872 29.8662C108.865 29.8573 110.103 29.9188 111.116 29.9732L111.524 30.013C111.78 30.0245 112.229 29.9816 112.464 30.0487C112.66 30.1052 113.141 30.0602 113.385 30.0866C113.816 30.1335 114.132 30.1115 114.497 30.1856L115.818 30.2841C115.97 30.2958 115.912 30.3157 116.004 30.3328C116.133 30.3568 116.34 30.3211 116.479 30.3486C116.585 30.3694 116.51 30.383 116.657 30.3894C116.733 30.3924 116.812 30.3856 116.889 30.3875L118.68 30.5373C118.967 30.5673 119.276 30.6238 119.544 30.6374C120.117 30.666 119.853 30.7038 120.389 30.7286L121.673 30.8996C121.831 30.9193 121.964 30.8944 122.106 30.9331C122.268 30.9772 122.386 30.957 122.557 30.9807C122.676 30.9969 122.615 31.0133 122.717 31.033C122.781 31.0454 122.875 31.0377 122.943 31.0393C123.058 31.0419 123.562 31.1605 123.785 31.1458C123.811 31.1076 123.799 31.1242 123.824 31.0752C123.827 31.0679 123.837 31.0457 123.841 31.0384L123.931 30.8853C124.026 30.7188 124.073 30.4552 124.159 30.2878C124.18 30.2466 124.162 30.2857 124.189 30.2135L124.379 29.7302C124.438 29.4866 124.669 29.0186 124.692 28.821C124.689 28.695 124.658 28.6871 124.551 28.6683C124.463 28.6531 124.368 28.6409 124.271 28.6369C123.705 28.6132 123.981 28.5647 123.426 28.5532C123.266 28.5497 123.335 28.5072 123.197 28.4878C123.001 28.4596 122.863 28.4655 122.685 28.416C122.472 28.3569 122.065 28.4027 121.607 28.2683C121.371 28.1987 121.13 28.2692 120.948 28.1827L120.824 28.1492C120.473 28.1342 120.435 28.0938 120.287 28.0915C120.186 28.0899 120.085 28.0962 119.99 28.0709C119.743 28.0054 119.162 27.9569 118.881 27.9351C118.783 27.9276 118.679 27.9496 118.586 27.9307C118.512 27.9156 118.457 27.877 118.344 27.8793C118.24 27.8816 118.178 27.9349 118.094 27.895C118.034 27.8664 117.989 27.8172 117.884 27.8008C117.706 27.7733 117.495 27.8228 117.336 27.7595C117.176 27.6957 116.97 27.7318 116.777 27.7018C116.658 27.6835 116.622 27.6901 116.523 27.654C116.32 27.5799 115.376 27.541 115.125 27.5269C114.921 27.5154 115.045 27.4723 114.589 27.4638C114.437 27.4612 114.429 27.4441 114.326 27.4263C114.07 27.3815 113.657 27.3968 113.493 27.3618C113.217 27.3034 113.097 27.3703 112.643 27.2922C112.548 27.276 112.447 27.2851 112.351 27.2727C112.167 27.2493 112.016 27.2315 111.805 27.2258C111.207 27.2096 110.097 27.0926 109.532 27.0865C109.195 27.0828 108.658 27.1023 108.365 27.0483C107.943 26.9707 103.811 26.9881 102.968 27.0303C102.796 27.0389 102.618 27.0746 102.433 27.0774C101.621 27.0894 100.907 27.1515 100.132 27.1984C99.9464 27.2096 99.7051 27.1946 99.5295 27.2214L98.4476 27.3292C98.3475 27.3381 98.2427 27.3313 98.1454 27.3428C98.0725 27.3513 98.0014 27.3733 97.9111 27.3855C97.5709 27.4312 97.0968 27.4254 96.7838 27.4917C96.6009 27.5306 96.4049 27.5177 96.2262 27.5485C96.0701 27.5752 95.9043 27.6082 95.7291 27.634C95.2944 27.6981 94.794 27.7264 94.3961 27.8277C94.2981 27.8528 94.2015 27.8401 94.1054 27.8512C93.7448 27.8929 93.2449 28.0259 92.8451 28.0863C92.7487 28.1009 92.6474 28.096 92.5501 28.1086C92.4008 28.1283 92.2022 28.2005 92.0575 28.2212C91.9602 28.2352 91.8591 28.224 91.7632 28.2434L91.0478 28.4083C90.8598 28.4369 90.7114 28.4552 90.5299 28.4838C90.4345 28.4986 90.3681 28.525 90.2811 28.545C90.094 28.5881 89.6715 28.6292 89.5435 28.7016C89.4926 28.9342 89.542 28.8826 89.6182 29.0121C89.6506 29.0669 89.6811 29.2454 89.713 29.3284L89.9322 29.9002C89.9746 30.0911 90.0049 30.059 90.0605 30.1835L90.1878 30.489C90.1911 30.4944 90.1953 30.5005 90.1986 30.5057L90.2527 30.5734C90.305 30.6613 90.2874 30.9929 90.5275 30.9969L90.9892 30.9141C91.2936 30.893 91.5953 30.7936 91.8317 30.7877L93.1541 30.6194C93.4981 30.5439 93.6186 30.5814 93.8568 30.5305C94.1342 30.4712 94.7427 30.4034 95.0055 30.395ZM105.904 22.4852C105.843 22.2514 105.703 22.2843 105.741 21.7682C105.752 21.6315 105.695 21.4744 105.737 21.3436C105.748 21.3077 105.796 21.2498 105.82 21.1968C105.844 21.1414 105.859 21.0709 105.88 21.0237L106.318 20.5749C106.356 20.5515 106.416 20.5257 106.455 20.5046C106.519 20.4701 106.544 20.4528 106.608 20.4251C106.714 20.3789 106.834 20.3939 106.978 20.344C107.099 20.3766 106.99 20.4052 107.125 20.4075C107.17 20.4082 107.466 20.3316 107.69 20.495C107.906 20.6533 107.884 20.5201 108.088 20.7883C108.124 20.8352 108.157 20.8626 108.196 20.9044C108.323 21.0401 108.263 21.0791 108.364 21.2001C108.476 21.3332 108.432 21.3722 108.436 21.5633C108.439 21.7178 108.443 21.8681 108.438 22.0231C108.43 22.2435 108.384 22.1297 108.317 22.3495C108.255 22.5509 108.247 22.518 108.097 22.6592L107.902 22.8402C107.797 22.9199 107.549 23.0426 107.415 23.0487L106.721 23.0498C106.6 23.0419 106.489 22.9567 106.387 22.9202C106.249 22.8709 106.216 22.8041 106.126 22.7185C106.044 22.64 105.981 22.5577 105.904 22.4852ZM103.53 26.2598C105.264 26.1953 107.007 26.2401 108.741 26.2579C109.509 26.2647 110.262 26.3036 111.039 26.3107C111.438 26.3142 111.784 26.3519 112.189 26.3519C112.449 26.3519 112.352 26.3562 112.442 26.3918C112.511 26.4185 114.544 26.4903 114.898 26.5435C115.244 26.5956 115.649 26.5963 115.996 26.6223L116.785 26.7189C117.232 26.7273 117.663 26.797 118.116 26.8223C118.432 26.8399 118.916 26.9487 119.162 26.9477C119.351 26.947 119.322 26.9761 119.411 27.0057C119.478 27.0277 119.593 27.0132 119.671 27.0223C119.744 27.031 119.851 27.0572 119.932 27.0645C120.024 27.0727 120.111 27.0657 120.205 27.0776L120.443 27.1386C120.554 27.1517 120.597 27.1459 120.7 27.1674C120.986 27.2275 121.322 27.1782 121.606 27.2877C121.763 27.3489 121.978 27.2905 122.14 27.3431L122.52 27.3925C122.632 27.4092 122.675 27.4315 122.746 27.4418L123.146 27.5074C123.191 27.5213 123.184 27.5206 123.247 27.5236C123.62 27.5414 123.961 27.6104 124.321 27.6249L125.356 27.7661C125.509 27.808 125.688 27.8451 125.879 27.8455C125.941 27.7114 125.914 27.8179 125.999 27.6889C126.076 27.5728 126.088 27.4 126.162 27.2854C126.219 27.1958 126.231 27.2254 126.223 27.0833C126.217 27.0788 126.208 27.0746 126.203 27.072L126.108 27.0275C126.061 27.0042 126.061 26.9977 126.032 26.9829C125.954 26.944 125.45 26.8933 125.354 26.8908C125.34 26.8725 125.323 26.827 125.317 26.8202L124.404 26.6898C124.325 26.6706 124.318 26.6532 124.204 26.6352L123.76 26.5634C123.648 26.5543 123.629 26.5489 123.542 26.5283C123.267 26.4633 122.907 26.495 122.637 26.4159C122.405 26.3479 122.326 26.4052 122.236 26.3611C122.122 26.3062 122.182 26.3222 122.021 26.3081C121.878 26.2954 121.98 26.2999 121.895 26.2713L120.744 26.1353C120.575 26.1268 120.652 26.1069 120.555 26.0771C120.473 26.052 120.213 26.0572 120.106 26.042C120.001 26.027 119.986 26.0049 119.899 25.9937C119.817 25.9833 119.732 25.996 119.651 25.9803C119.577 25.9662 119.545 25.9404 119.445 25.9362C119.144 25.9238 118.787 25.9182 118.499 25.8523C117.97 25.7308 117.386 25.7796 116.9 25.6851L116.467 25.6354C115.938 25.558 115.146 25.5027 114.613 25.4708C114.484 25.463 114.492 25.444 114.406 25.4302C114.169 25.392 113.885 25.4185 113.644 25.4133C113.432 25.4089 113.4 25.3646 113.186 25.362C113.005 25.3599 112.885 25.3547 112.725 25.3376C112.589 25.3228 112.367 25.309 112.241 25.3104C112.046 25.3127 111.929 25.2855 111.755 25.2846C111.411 25.2827 111.493 25.2548 111.295 25.2408C111.144 25.23 110.963 25.2422 110.809 25.2384C110.191 25.2239 109.503 25.1575 108.895 25.1404C107.389 25.0975 105.661 25.1195 104.118 25.12C103.267 25.1207 102.453 25.1512 101.614 25.1631C100.8 25.1749 100.031 25.2628 99.2137 25.2633C99.0798 25.2691 99.0298 25.3022 98.857 25.3038L97.1934 25.4398C97.0136 25.4663 97.1257 25.4626 97.0619 25.4874C97.0185 25.5045 96.4539 25.5191 96.3277 25.5346L95.6084 25.603C94.8972 25.6586 94.1708 25.7686 93.4615 25.8462L92.069 26.0387C91.657 26.1142 89.5345 26.4251 89.3439 26.4816C89.142 26.5414 88.9043 26.5677 88.6761 26.6075C88.4381 26.6493 88.2402 26.627 88.0252 26.7487C88.0175 26.8598 88.0613 27.0687 88.0869 27.1771L88.2051 27.5163C88.4365 27.5365 88.6818 27.4786 88.8947 27.4584C89.3995 27.4108 89.6527 27.3717 90.1156 27.2633C90.4108 27.1944 90.8497 27.249 91.1517 27.1869C91.2659 27.1635 91.3034 27.1407 91.4488 27.1327C91.5785 27.1257 91.6429 27.1135 91.7569 27.088L92.7276 26.9855C92.9035 26.9656 93.1649 26.8957 93.3394 26.8898C93.5886 26.8811 93.7635 26.8446 94.0285 26.8319C94.2747 26.8199 94.4763 26.7777 94.692 26.7721L96.0361 26.6764C96.2295 26.6525 96.4614 26.6279 96.6853 26.6164C96.9071 26.6052 96.8349 26.5707 97.35 26.562C97.578 26.558 97.7773 26.5135 98.0129 26.509L98.7539 26.4997C98.9119 26.4997 98.8453 26.4896 98.9607 26.4624C99.2176 26.4016 99.9647 26.4814 100.143 26.4026C100.181 26.3857 100.133 26.3841 100.234 26.3681C100.261 26.3637 100.332 26.3644 100.363 26.3641C100.444 26.3639 100.5 26.3611 100.578 26.3529C101.202 26.2851 101.878 26.3283 102.509 26.286L103.53 26.2598ZM106.927 32.4143C107.624 32.4103 109.757 32.4422 110.475 32.5038C110.978 32.547 113.064 32.5674 113.466 32.675C113.711 32.7404 114.182 32.6734 114.522 32.7451C114.612 32.7644 116.114 32.8438 116.396 32.8877L117.42 32.9862C117.521 33.0131 117.407 32.9862 117.475 33.0066C117.612 33.0474 117.856 33.0689 118.011 33.0732C118.591 33.0891 119.094 33.1604 119.675 33.2141C119.856 33.2307 119.724 33.2415 119.837 33.2703C120.087 33.3339 120.38 33.3271 120.57 33.3494C120.707 33.3655 120.63 33.3648 120.694 33.385C120.837 33.4298 121.135 33.3925 121.265 33.4317C121.432 33.4816 121.608 33.4718 121.793 33.479C121.961 33.4856 121.936 33.5187 122.051 33.5332C122.233 33.5559 122.427 33.5606 122.611 33.5789C122.732 33.5909 122.742 33.6162 122.864 33.6253L123.667 33.7196C123.966 33.7527 124.437 33.8938 124.691 33.8411C124.741 33.3501 124.685 32.7958 124.668 32.3322C124.413 32.2 124.121 32.2021 123.835 32.1845C123.612 32.1707 123.173 32.0637 123.019 32.0534C122.705 32.0328 122.459 31.9521 122.178 31.9329C122.002 31.9209 121.901 31.902 121.735 31.8827L121.356 31.8114C121.062 31.7723 120.746 31.7716 120.472 31.7209C120.208 31.6719 119.888 31.6595 119.627 31.6227C119.21 31.5641 118.283 31.4351 117.936 31.4274C117.288 31.4133 116.791 31.3125 116.178 31.2654C116.044 31.255 115.871 31.2489 115.716 31.2372C115.566 31.2262 115.475 31.1823 115.332 31.1767C115.005 31.1638 114.725 31.1627 114.431 31.1258C113.847 31.0527 111.609 31.0224 111.253 30.9528C111.175 30.9373 111.191 30.9167 111.089 30.9087C110.751 30.8827 109.934 30.9033 109.584 30.9005C109.19 30.8972 108.909 30.8508 108.485 30.851C108.485 30.851 104.728 30.8311 104.562 30.8588L103.964 30.8989C103.547 30.901 103.13 30.9068 102.713 30.9066C102.109 30.9059 101.54 30.9734 100.949 30.9826C100.758 30.9854 100.778 31.0381 100.568 31.0403C100.401 31.0421 100.285 31.0367 100.138 31.0717C99.888 31.1315 99.54 31.075 99.2685 31.1061C99.1907 31.1151 99.1604 31.1371 99.0835 31.1483L98.4479 31.188C97.8725 31.195 97.2966 31.2783 96.736 31.3273C96.441 31.3533 96.2332 31.4171 95.9451 31.4239C95.776 31.4278 93.6779 31.6522 93.4589 31.7029C93.243 31.7526 93.2451 31.7303 93.0599 31.7592L92.2659 31.8654C92.0488 31.8766 92.0333 31.9261 91.8819 31.9374C91.8115 31.9425 91.7206 31.9331 91.6535 31.9435C91.4987 31.9671 91.4523 32.0466 91.0908 32.0565L90.0956 32.2178C89.773 32.3069 89.7596 32.2234 89.561 32.3472C89.5585 32.6771 89.5179 33.4028 89.5634 33.728C89.5939 33.9449 89.8016 33.8185 89.9181 33.797C90.1203 33.7597 90.0677 33.8085 90.256 33.7318C90.3932 33.676 90.4802 33.7173 90.6143 33.6816C90.7086 33.6568 90.6727 33.649 90.7632 33.6277C90.9477 33.5848 91.1306 33.6183 91.3037 33.5754C91.4115 33.5487 91.4767 33.4861 91.601 33.4746C91.7252 33.4633 91.8861 33.4772 91.9984 33.4525L93.0343 33.2896C93.1738 33.2699 93.2751 33.2978 93.3673 33.2457L93.6707 33.1944C93.8575 33.1895 94.3347 33.0926 94.7446 33.0727L95.8081 32.9322C96.0527 32.9029 96.3076 32.8682 96.5317 32.8584C96.6621 32.8527 96.7676 32.834 96.916 32.8298C97.0769 32.8251 97.0961 32.7981 97.2342 32.7789C97.4755 32.7451 97.7397 32.7608 97.9859 32.7322C98.381 32.6865 100.52 32.5249 100.976 32.5242C101.563 32.5231 102.189 32.445 102.738 32.4429L104.143 32.4267L106.927 32.4143ZM122.296 22.9436C122.273 22.8308 122.335 22.772 122.378 22.6866C122.518 22.4074 122.539 22.397 122.821 22.1321C123.137 21.8341 123.419 21.8967 123.914 21.8948C124.278 21.8934 124.501 22.175 124.74 22.3963C124.878 22.5244 124.764 22.4899 124.859 22.6116C124.906 22.6721 124.947 22.6946 124.964 22.8409C124.984 23.0201 124.969 23.3415 124.965 23.5319C124.959 23.8696 124.93 23.6627 124.833 23.8951C124.767 24.0529 124.891 23.8677 124.675 24.0886L124.52 24.2388C124.509 24.2515 124.444 24.3183 124.43 24.3301C124.347 24.4025 124.305 24.384 124.216 24.4489C124.152 24.4958 124.144 24.5298 123.965 24.5401C123.885 24.5448 123.352 24.5634 123.329 24.5603C122.936 24.5083 122.829 24.2738 122.703 24.1819L122.451 23.9448C122.428 23.9071 122.414 23.855 122.403 23.8093C122.361 23.6292 122.33 23.6914 122.302 23.5783C122.273 23.4616 122.342 23.1689 122.296 22.9436ZM100.674 21.9213C100.646 22.1126 100.702 22.4217 100.677 22.541L100.361 23.0698L100.17 23.21C99.9365 23.4252 100.076 23.2709 99.8371 23.3915C99.7049 23.4583 99.7642 23.4365 99.5201 23.4353C98.5574 23.4316 99.1163 23.4731 98.6601 23.2963C98.4528 23.2158 98.4659 23.1356 98.2812 22.98C98.1747 22.8904 98.2057 22.9185 98.1529 22.7764C98.1257 22.7026 98.0645 22.6299 98.0277 22.5715C97.9726 22.4843 97.9716 21.7239 98.0694 21.5677L98.0896 21.5365C98.1119 21.5 98.1301 21.462 98.1501 21.42C98.1979 21.3201 98.4514 21.039 98.5522 20.9782C98.646 20.9215 98.6014 20.9632 98.6891 20.9306C98.8247 20.8802 98.7621 20.7517 99.1907 20.7949C99.5597 20.8319 99.4857 20.6788 100.026 20.9077C100.157 20.9632 100.193 21.057 100.388 21.2322C100.555 21.3815 100.711 21.6765 100.674 21.9213Z" fill="#2B2A29"/>
<path fill-rule="evenodd" clip-rule="evenodd" d="M29.4453 92.5515V92.1859C29.8718 92.0867 30.1403 91.9573 30.2505 91.7974C30.3607 91.6349 30.4144 91.2691 30.4144 90.7003V84.2635C30.4144 83.6438 30.3494 83.2604 30.2195 83.1106C30.0925 82.9633 29.8322 82.8465 29.4453 82.7626V82.3971H37.089V84.6443H36.2697C36.0577 84.0576 35.8458 83.6463 35.6284 83.4076C35.4078 83.1715 35.0263 83.0522 34.4809 83.0522H31.9631V86.8078C32.7514 86.7494 33.4523 86.7189 34.057 86.7189C36.5635 86.7189 37.8156 87.6584 37.8156 89.5373C37.8156 91.546 36.4336 92.5515 33.6698 92.5515H29.4453ZM31.9631 87.4781V91.8532C32.3671 91.8811 32.8222 91.8963 33.3308 91.8963C34.3341 91.8963 35.0516 91.7085 35.4868 91.3352C35.9192 90.9619 36.137 90.388 36.137 89.6212C36.137 88.1534 35.2863 87.4172 33.5852 87.4172C32.8672 87.4172 32.3277 87.4373 31.9631 87.4781ZM46.1643 92.5515V92.1859C46.4414 92.1376 46.6447 92.0818 46.7805 92.0232C46.9163 91.9648 47.018 91.8811 47.083 91.7744C47.1507 91.6677 47.1819 91.5256 47.1819 91.3453C47.1819 91.1777 47.162 90.995 47.1167 90.7995C47.0717 90.6039 47.0093 90.383 46.9275 90.1418L46.6194 89.1818H42.7623L42.4795 89.9106C42.3381 90.2763 42.2422 90.5556 42.1998 90.7434C42.1545 90.9315 42.132 91.104 42.132 91.2565C42.132 91.5535 42.2169 91.7718 42.3862 91.9116C42.5529 92.0513 42.8132 92.1425 43.1607 92.1859V92.5515H39.6255V92.1859C39.9334 92.1425 40.2018 91.98 40.4307 91.7034C40.6598 91.4267 40.883 91.0278 41.0978 90.5125L44.5509 82.2777H45.8592L48.6739 90.5734C48.8068 90.9594 48.9227 91.2539 49.0244 91.4569C49.1262 91.6602 49.2502 91.8201 49.3947 91.9343C49.5358 92.0487 49.7335 92.1325 49.9823 92.1859V92.5515H46.1643ZM42.9853 88.5344H46.4471L44.873 83.7352L42.9853 88.5344ZM60.7789 90.6928C60.7789 90.9798 60.7871 91.1955 60.8042 91.3376C60.8211 91.4825 60.8464 91.5967 60.886 91.6855C60.9256 91.7718 60.9709 91.8431 61.0274 91.8963C61.0809 91.9521 61.1604 92.0004 61.2619 92.0462C61.3636 92.0893 61.5247 92.1376 61.7395 92.1859V92.5515H58.2693V92.1859C58.5746 92.1172 58.7865 92.041 58.9078 91.9573C59.0295 91.871 59.1143 91.7439 59.1594 91.5688C59.2074 91.3962 59.2302 91.104 59.2302 90.6928V87.5745H54.6267V90.6928C54.6267 91.0229 54.6408 91.2665 54.6635 91.4215C54.6889 91.5739 54.7311 91.6956 54.7878 91.7845C54.8471 91.8736 54.9318 91.9496 55.0448 92.0079C55.158 92.0689 55.3419 92.1273 55.596 92.1859V92.5515H52.1089V92.1859C52.4536 92.1071 52.6825 92.0208 52.7983 91.9217C52.9141 91.8253 52.9903 91.6881 53.0243 91.5104C53.0611 91.3327 53.078 91.0583 53.078 90.6928V84.2557C53.078 83.9155 53.0639 83.6642 53.0386 83.5092C53.0103 83.3518 52.965 83.2325 52.9001 83.1436C52.8379 83.0571 52.7533 82.9886 52.6487 82.9354C52.5439 82.8845 52.3631 82.8261 52.1089 82.7626V82.3971H55.596V82.7626C55.3529 82.8161 55.1777 82.8719 55.0704 82.9251C54.963 82.9786 54.8783 83.047 54.8131 83.131C54.751 83.2121 54.7029 83.334 54.672 83.4991C54.6408 83.6616 54.6267 83.9155 54.6267 84.2557V86.8915H59.2302V84.2557C59.2302 83.8241 59.2074 83.5296 59.1594 83.372C59.1143 83.2121 59.0351 83.0902 58.9249 83.0065C58.8147 82.9227 58.5943 82.8414 58.2693 82.7626V82.3971H61.7395V82.7626C61.4286 82.8313 61.2138 82.9099 61.0924 82.9964C60.9709 83.0827 60.8888 83.2121 60.8438 83.3872C60.8011 83.5601 60.7789 83.8494 60.7789 84.2557V90.6928ZM71.5581 92.5515V92.1859C71.3321 91.6855 71.1427 91.2464 70.9872 90.8705L70.3684 89.3673C70.1565 88.862 69.9672 88.4962 69.7947 88.2728C69.6254 88.0519 69.4247 87.8868 69.1958 87.7827C68.9667 87.6786 68.6558 87.6254 68.2631 87.6254H67.2544V90.7003C67.2544 91.2944 67.3137 91.6677 67.4323 91.8227C67.551 91.9751 67.811 92.097 68.2152 92.1859V92.5515H64.7195V92.1859C65.0953 92.1071 65.3523 92.0004 65.4909 91.8659C65.6295 91.7338 65.6972 91.3427 65.6972 90.7003V84.2635C65.6972 83.6084 65.6266 83.2147 65.4827 83.0801C65.3382 82.9481 65.0841 82.8414 64.7195 82.7626V82.3971H68.2152V82.7626C67.8448 82.8465 67.5934 82.9556 67.4576 83.0927C67.3221 83.2299 67.2544 83.6184 67.2544 84.2635V86.9881H68.249C68.6954 86.9881 69.046 86.8661 69.303 86.6275C69.5604 86.3862 69.888 85.769 70.2835 84.7763C70.6481 83.8393 71.0128 83.1893 71.3743 82.8236C71.7333 82.4606 72.3239 82.2777 73.1406 82.2777C73.4006 82.2777 73.7425 82.3335 74.1664 82.4428V84.1516H73.347C73.282 83.6616 73.0419 83.4151 72.6264 83.4151C72.3748 83.4151 72.1544 83.5218 71.9736 83.7352C71.7898 83.9486 71.541 84.4208 71.2189 85.1496C70.9647 85.7437 70.7443 86.1831 70.5576 86.4624C70.3712 86.7416 70.114 86.9752 69.7862 87.1581V87.2165C70.6934 87.4655 71.3914 88.0824 71.8829 89.0702L72.6264 90.5809C72.9033 91.1397 73.1549 91.5357 73.3807 91.7669C73.6067 91.9979 73.946 92.1376 74.3981 92.1859V92.5515H71.5581ZM84.451 82.3971V84.6443H83.6399C83.5555 84.4004 83.4706 84.1873 83.3829 84.0044C83.2952 83.8189 83.2022 83.6667 83.1088 83.5422C83.0155 83.4177 82.9109 83.3188 82.7979 83.2452C82.6849 83.1715 82.5522 83.1206 82.3967 83.0927C82.2443 83.0648 82.0577 83.0522 81.8429 83.0522H79.2262V86.9499H80.9981C81.241 86.9499 81.4305 86.9194 81.5686 86.8558C81.7071 86.7951 81.823 86.6884 81.9137 86.5412C82.004 86.3913 82.0917 86.1576 82.1735 85.8403H82.9534V88.6969H82.1735C82.0971 88.3998 82.0096 88.1764 81.9163 88.024C81.823 87.8742 81.713 87.7649 81.5831 87.7016C81.4527 87.6355 81.2579 87.605 80.9981 87.605H79.2262V91.8963H81.8005C82.0718 91.8963 82.2922 91.8759 82.4591 91.8328C82.6284 91.7922 82.7726 91.7186 82.8941 91.6171C83.0155 91.5155 83.1231 91.3833 83.2162 91.2208C83.3093 91.0557 83.3888 90.8858 83.4538 90.7106C83.5159 90.5352 83.6036 90.2763 83.7135 89.941H84.5333L84.3748 92.5515H76.7084V92.1859C77.0531 92.1071 77.2819 92.0208 77.3977 91.9217C77.5136 91.8253 77.5898 91.6881 77.6238 91.5104C77.6606 91.3327 77.6775 91.0583 77.6775 90.6928V84.2557C77.6775 83.9155 77.6634 83.6642 77.6381 83.5092C77.6097 83.3518 77.5644 83.2325 77.4995 83.1436C77.4374 83.0571 77.3527 82.9886 77.2479 82.9354C77.1433 82.8845 76.9625 82.8261 76.7084 82.7626V82.3971H84.451ZM86.9763 82.3971H95.9344V84.9871H95.1233C95.0019 84.5606 94.883 84.2227 94.7643 83.9739C94.6455 83.7251 94.5184 83.5371 94.3857 83.4076C94.2558 83.2806 94.1118 83.1868 93.962 83.1333C93.8093 83.0801 93.5805 83.0522 93.278 83.0522H92.2266V90.6698C92.2266 90.9619 92.2435 91.1955 92.2803 91.3681C92.3171 91.5435 92.3708 91.6804 92.4442 91.7821C92.5206 91.8837 92.6196 91.9625 92.7467 92.0208C92.8738 92.0766 93.0745 92.1325 93.3429 92.1859V92.5515H89.559V92.1859C89.7257 92.1529 89.8727 92.1146 90 92.0741C90.1271 92.0361 90.2289 91.9878 90.3107 91.9294C90.3897 91.8736 90.4549 91.7997 90.5086 91.7109C90.5595 91.622 90.6017 91.5003 90.6329 91.3453C90.6641 91.1929 90.6781 90.9669 90.6781 90.6698V83.0522H89.6354C89.3754 83.0522 89.1606 83.0749 88.9939 83.1181C88.8244 83.1638 88.6689 83.2552 88.525 83.3976C88.3805 83.5397 88.2506 83.7404 88.132 83.9992C88.0133 84.2609 87.9031 84.5885 87.7958 84.9871H86.9763V82.3971ZM107.124 90.6928C107.124 90.9798 107.132 91.1955 107.149 91.3376C107.166 91.4825 107.191 91.5967 107.231 91.6855C107.271 91.7718 107.316 91.8431 107.372 91.8963C107.426 91.9521 107.505 92.0004 107.607 92.0462C107.708 92.0893 107.87 92.1376 108.084 92.1859V92.5515H104.614V92.1859C104.919 92.1172 105.131 92.041 105.253 91.9573C105.374 91.871 105.459 91.7439 105.504 91.5688C105.552 91.3962 105.575 91.104 105.575 90.6928V87.5745H100.972V90.6928C100.972 91.0229 100.986 91.2665 101.008 91.4215C101.034 91.5739 101.076 91.6956 101.133 91.7845C101.192 91.8736 101.277 91.9496 101.39 92.0079C101.503 92.0689 101.687 92.1273 101.941 92.1859V92.5515H98.4538V92.1859C98.7985 92.1071 99.0273 92.0208 99.1432 91.9217C99.259 91.8253 99.3352 91.6881 99.3692 91.5104C99.406 91.3327 99.4229 91.0583 99.4229 90.6928V84.2557C99.4229 83.9155 99.4088 83.6642 99.3835 83.5092C99.3551 83.3518 99.3099 83.2325 99.2449 83.1436C99.1828 83.0571 99.0981 82.9886 98.9933 82.9354C98.8887 82.8845 98.708 82.8261 98.4538 82.7626V82.3971H101.941V82.7626C101.698 82.8161 101.522 82.8719 101.415 82.9251C101.308 82.9786 101.223 83.047 101.158 83.131C101.096 83.2121 101.048 83.334 101.017 83.4991C100.986 83.6616 100.972 83.9155 100.972 84.2557V86.8915H105.575V84.2557C105.575 83.8241 105.552 83.5296 105.504 83.372C105.459 83.2121 105.38 83.0902 105.27 83.0065C105.16 82.9227 104.939 82.8414 104.614 82.7626V82.3971H108.084V82.7626C107.773 82.8313 107.559 82.9099 107.437 82.9964C107.316 83.0827 107.234 83.2121 107.189 83.3872C107.146 83.5601 107.124 83.8494 107.124 84.2557V90.6928ZM119.932 92.5515V92.1859C120.291 92.1071 120.542 92.003 120.686 91.8736C120.83 91.7465 120.901 91.3528 120.901 90.7003V84.2635C120.901 83.6438 120.836 83.2604 120.706 83.1106C120.576 82.9633 120.319 82.8465 119.932 82.7626V82.3971H123.419V82.7626C122.998 82.8667 122.732 82.9987 122.619 83.1589C122.506 83.3214 122.45 83.6895 122.45 84.2635V90.7003C122.45 91.3301 122.518 91.7134 122.653 91.8532C122.786 91.9904 123.043 92.102 123.419 92.1859V92.5515H119.932ZM111.064 92.5515V92.1859C111.44 92.1071 111.697 92.0004 111.836 91.8659C111.974 91.7338 112.042 91.3427 112.042 90.7003V84.2635C112.042 83.6084 111.971 83.2147 111.827 83.0801C111.683 82.9481 111.429 82.8414 111.064 82.7626V82.3971H114.56V82.7626C114.125 82.8618 113.851 82.9964 113.743 83.1715C113.636 83.3441 113.582 83.7099 113.582 84.2635V86.8078C114.356 86.7494 115.032 86.7189 115.611 86.7189C118.013 86.7189 119.211 87.6584 119.211 89.5373C119.211 91.546 117.883 92.5515 115.221 92.5515H111.064ZM113.582 87.4781V91.8532C113.969 91.8811 114.413 91.8963 114.916 91.8963C115.908 91.8963 116.614 91.7085 117.03 91.3352C117.448 90.9619 117.657 90.388 117.657 89.6212C117.657 88.1534 116.826 87.4172 115.165 87.4172C114.469 87.4172 113.941 87.4373 113.582 87.4781ZM132.7 92.5515V92.1859C133.122 92.0867 133.387 91.9573 133.497 91.7974C133.608 91.6349 133.662 91.2691 133.662 90.7003V87.5009C133.662 86.4546 133.673 85.7819 133.695 85.4849H133.662L128.951 90.7003C128.951 91.2944 129.01 91.6677 129.129 91.8227C129.247 91.9751 129.51 92.097 129.912 92.1859V92.5515H126.45V92.1859C126.877 92.0867 127.145 91.9573 127.258 91.7974C127.371 91.6349 127.428 91.2691 127.428 90.7003V84.2635C127.428 83.6084 127.357 83.2147 127.213 83.0801C127.069 82.9481 126.814 82.8414 126.45 82.7626V82.3971H129.912V82.7626C129.541 82.8465 129.29 82.9556 129.154 83.0927C129.019 83.2299 128.951 83.6184 128.951 84.2635V87.5365C128.951 88.2702 128.934 88.8899 128.903 89.39H128.951L133.662 84.1744C133.662 83.6489 133.605 83.3061 133.492 83.1485C133.379 82.9886 133.116 82.8618 132.7 82.7626V82.3971H136.145V82.7626C135.775 82.8465 135.524 82.9556 135.388 83.0927C135.252 83.2299 135.185 83.6184 135.185 84.2635V90.7003C135.185 91.2944 135.244 91.6677 135.363 91.8227C135.481 91.9751 135.744 92.097 136.145 92.1859V92.5515H132.7ZM134.051 79.6598C134.051 80.2057 133.786 80.6347 133.257 80.9496C132.726 81.2645 132.068 81.4219 131.276 81.4219C130.423 81.4219 129.759 81.272 129.29 80.9675C128.821 80.6652 128.586 80.2284 128.586 79.6598V79.355H129.985V79.6598C129.985 80.0711 130.084 80.3759 130.276 80.5712C130.468 80.7668 130.807 80.8634 131.293 80.8634C131.79 80.8634 132.141 80.7719 132.345 80.5864C132.551 80.3986 132.652 80.0915 132.652 79.6598V79.355H134.051V79.6598ZM157.967 95.2228C157.922 94.7072 157.814 94.2071 157.648 93.7271C157.478 93.2446 157.286 92.9299 157.071 92.7775C156.857 92.6277 156.565 92.5515 156.204 92.5515H151.253C150.688 92.5515 150.28 92.7775 150.026 93.2319C149.772 93.6865 149.608 94.3492 149.529 95.2228H148.684V91.8659H149.498C150.385 90.8806 151.108 89.5907 151.665 87.9987C152.222 86.4066 152.502 84.9896 152.502 83.7504C152.502 83.4128 152.448 83.1741 152.335 83.0292C152.225 82.8845 152.004 82.7957 151.674 82.7626V82.3971H158.453V82.7626C158.074 82.8465 157.814 82.9556 157.682 83.0876C157.546 83.2222 157.478 83.6133 157.478 84.2635V91.8659H158.809V95.2228H157.967ZM155.929 83.0522H153.604C153.267 86.861 152.31 89.799 150.73 91.8659H155.929V83.0522ZM165.867 92.6708C165.205 92.6708 164.601 92.5719 164.058 92.3763C163.513 92.1808 163.046 91.8759 162.659 91.4621C162.269 91.0482 161.97 90.5176 161.755 89.8726C161.543 89.2275 161.438 88.4582 161.438 87.5592C161.438 86.4546 161.625 85.505 162.001 84.7104C162.377 83.9181 162.913 83.3136 163.612 82.8998C164.31 82.4859 165.118 82.2777 166.042 82.2777C167.023 82.2777 167.851 82.4733 168.52 82.8618C169.19 83.2503 169.696 83.8241 170.035 84.5807C170.374 85.3374 170.544 86.2567 170.544 87.3435C170.544 88.504 170.351 89.4841 169.964 90.2813C169.58 91.0813 169.034 91.678 168.331 92.0741C167.627 92.4727 166.805 92.6708 165.867 92.6708ZM163.143 87.351C163.143 88.8747 163.391 90.0325 163.883 90.8248C164.378 91.6196 165.101 92.0157 166.047 92.0157C166.649 92.0157 167.161 91.8431 167.579 91.4977C168 91.1549 168.314 90.6496 168.523 89.9842C168.735 89.3216 168.84 88.5445 168.84 87.6559C168.84 86.574 168.715 85.6778 168.469 84.9667C168.223 84.2557 167.89 83.7378 167.463 83.4151C167.04 83.0927 166.545 82.9328 165.983 82.9328C165.485 82.9328 165.058 83.0369 164.702 83.2452C164.346 83.4534 164.053 83.7504 163.818 84.1338C163.583 84.5172 163.411 84.9819 163.304 85.528C163.196 86.0739 163.143 86.6807 163.143 87.351ZM185.324 82.7626C185.081 82.8161 184.906 82.8719 184.799 82.9251C184.691 82.9786 184.607 83.047 184.542 83.131C184.48 83.2121 184.431 83.334 184.401 83.4991C184.372 83.6616 184.355 83.9155 184.355 84.2557V90.6928C184.355 91.0229 184.369 91.2665 184.392 91.4215C184.417 91.5739 184.46 91.6956 184.516 91.7845C184.575 91.8736 184.66 91.9496 184.774 92.0079C184.887 92.0689 185.07 92.1273 185.324 92.1859V92.5515H181.871V92.1859C182.188 92.1172 182.405 92.0384 182.527 91.9496C182.649 91.8607 182.73 91.7287 182.776 91.5535C182.818 91.381 182.841 91.094 182.841 90.6928V87.8437C182.841 87.0945 182.855 86.3353 182.877 85.5686C182.903 84.8042 182.931 84.2785 182.965 83.9966H182.823L179.545 91.3681H178.593L175.547 83.8773H175.406C175.434 84.1795 175.459 84.728 175.485 85.5203C175.51 86.3151 175.522 87.1302 175.522 87.9682V90.6928C175.522 91.0229 175.536 91.2665 175.561 91.4215C175.584 91.5739 175.626 91.6956 175.685 91.7845C175.742 91.8736 175.826 91.9496 175.94 92.0079C176.053 92.0689 176.237 92.1273 176.491 92.1859V92.5515H173.47V92.1859C173.812 92.1071 174.041 92.0208 174.157 91.9217C174.272 91.8253 174.349 91.6881 174.385 91.5104C174.419 91.3327 174.439 91.0583 174.439 90.6928V84.2557C174.439 83.9155 174.425 83.6642 174.397 83.5092C174.368 83.3518 174.323 83.2325 174.261 83.1436C174.196 83.0571 174.111 82.9886 174.007 82.9354C173.902 82.8845 173.724 82.8261 173.47 82.7626V82.3971H176.426L179.331 89.6365L182.527 82.3971H185.324V82.7626Z" fill="#2B2A29"/>
<path fill-rule="evenodd" clip-rule="evenodd" d="M180.171 35.4131C179.968 35.5287 179.548 36.007 178.91 36.8476C178.273 37.6882 177.527 38.8477 176.672 40.3256C175.817 41.8039 174.905 43.5791 173.934 45.6517C172.964 47.724 172.044 50.0209 171.174 52.5424C171.377 52.5424 171.645 52.5424 171.979 52.5424C172.312 52.5424 172.645 52.5279 172.978 52.499C173.311 52.47 173.63 52.4341 173.934 52.3905C174.238 52.3469 174.477 52.2962 174.651 52.2383C175.057 52.0934 175.31 52.0789 175.412 52.1947C175.513 52.3108 175.376 52.499 174.999 52.76C174.419 53.1656 173.731 53.4484 172.935 53.6076C172.138 53.7671 171.421 53.8759 170.783 53.9336C170.638 54.3685 170.443 54.9556 170.197 55.6947C169.95 56.434 169.69 57.2598 169.414 58.1726C169.139 59.0859 168.878 60.0278 168.632 60.9985C168.386 61.9697 168.205 62.89 168.089 63.7592C167.973 64.6291 167.937 65.4118 167.98 66.107C168.024 66.8029 168.205 67.3244 168.523 67.6724C168.813 67.991 169.168 68.1577 169.588 68.1723C170.008 68.1868 170.465 68.0201 170.957 67.6724C171.508 67.2667 172.036 66.7593 172.543 66.1506C173.05 65.5419 173.528 64.8828 173.978 64.1724C174.427 63.4621 174.854 62.7306 175.259 61.9767C175.654 61.2452 176.02 60.541 176.359 59.8639C176.393 59.7849 176.428 59.7056 176.464 59.6259C177.029 58.356 177.863 57.0643 178.966 55.7507C179.604 54.9627 180.38 54.2914 181.294 53.7366C182.208 53.1821 183.136 52.7879 184.079 52.5544C185.022 52.3208 185.936 52.2918 186.821 52.4669C187.706 52.6421 188.453 53.0653 189.062 53.7366C189.381 54.0578 189.476 54.3643 189.345 54.6562C189.215 54.9481 188.961 55.0649 188.584 55.0065C188.352 54.1891 187.88 53.6927 187.169 53.5176C186.459 53.3427 185.697 53.474 184.885 53.9117C183.898 54.4665 182.883 55.3202 181.838 56.4731C180.794 57.6263 179.88 58.8596 179.097 60.1732C179.01 60.3192 178.879 60.5528 178.705 60.8738C178.531 61.1948 178.349 61.5671 178.161 61.9903C177.972 62.4136 177.798 62.8513 177.639 63.3039C177.479 63.7564 177.37 64.1869 177.312 64.5956C177.196 65.3546 177.247 65.9091 177.464 66.2594C177.682 66.6097 177.987 66.7849 178.379 66.7849C178.77 66.7849 179.227 66.617 179.749 66.2812C180.271 65.9457 180.794 65.4713 181.316 64.8582C182.07 63.9243 182.759 62.939 183.383 61.9026C184.007 60.8665 184.609 59.8083 185.189 58.7283C185.682 57.7942 186.125 57.079 186.517 56.5826C186.908 56.0865 187.452 55.8675 188.148 55.9259C188.438 55.9552 188.736 56.0063 189.041 56.0792C189.345 56.1522 189.657 56.1594 189.976 56.101C189.744 56.3346 189.432 56.7651 189.041 57.3928C188.649 58.0204 188.243 58.7356 187.822 59.5382C187.402 60.341 187.017 61.1657 186.669 62.0121C186.321 62.8588 186.074 63.6176 185.929 64.2891C185.581 66.0404 185.726 66.9162 186.364 66.9162C186.829 66.9455 187.336 66.6681 187.887 66.0843C188.438 65.5004 188.983 64.7998 189.52 63.9827C190.056 63.1653 190.542 62.3406 190.977 61.5087C191.413 60.6768 191.746 60.0273 191.978 59.5602C192.181 59.1806 192.385 59.0348 192.587 59.1222L192.592 59.1241C192.919 57.9881 193.307 56.7906 193.755 55.532C194.244 54.1598 194.776 52.7952 195.351 51.4378C195.926 50.0804 196.529 48.7596 197.162 47.4752C197.794 46.1907 198.427 45.0233 199.059 43.9724C199.835 42.6588 200.655 41.7174 201.517 41.1481C202.379 40.579 203.098 40.3891 203.673 40.579C204.248 40.7687 204.586 41.3451 204.686 42.3085C204.787 43.2718 204.449 44.6291 203.673 46.3807C202.667 48.6574 201.474 50.9271 200.094 53.1893C198.714 55.4515 196.961 57.5606 194.833 59.5164C194.718 59.8958 194.575 60.3338 194.402 60.8299C194.23 61.3263 194.072 61.8518 193.928 62.4063C193.612 63.7198 193.554 64.7562 193.755 65.5152C193.957 66.274 194.309 66.7631 194.812 66.9818C195.315 67.2008 195.89 67.157 196.537 66.8505C197.183 66.5441 197.794 65.982 198.369 65.1649C198.714 64.6394 199.051 64.114 199.382 63.5885C199.713 63.0631 200.015 62.5521 200.288 62.056C200.561 61.5598 200.806 61.1 201.021 60.6768C201.237 60.2534 201.416 59.8958 201.56 59.6039C201.761 59.2245 201.97 59.0566 202.185 59.1004C202.278 59.1192 202.332 59.1745 202.348 59.266C202.697 58.088 203.115 56.8431 203.601 55.532C204.11 54.1598 204.664 52.7952 205.263 51.4378C205.861 50.0804 206.49 48.7596 207.148 47.4752C207.807 46.1907 208.465 45.0233 209.123 43.9724C209.931 42.6588 210.784 41.7174 211.682 41.1481C212.58 40.579 213.328 40.3891 213.927 40.579C214.525 40.7687 214.877 41.3451 214.981 42.3085C215.086 43.2718 214.735 44.6291 213.927 46.3807C212.879 48.6574 211.637 50.9271 210.2 53.1893C208.764 55.4515 206.939 57.5606 204.724 59.5164C204.604 59.8958 204.455 60.3338 204.275 60.8299C204.095 61.3263 203.931 61.8518 203.781 62.4063C203.452 63.7198 203.392 64.7562 203.601 65.5152C203.811 66.274 204.178 66.7631 204.702 66.9818C205.225 67.2008 205.824 67.157 206.497 66.8505C207.17 66.5441 207.807 65.982 208.405 65.1649C208.764 64.6394 209.116 64.114 209.46 63.5885C209.804 63.0631 210.118 62.5521 210.403 62.056C210.687 61.5598 210.941 61.1 211.166 60.6768C211.39 60.2534 211.577 59.8958 211.727 59.6039C211.936 59.2245 212.153 59.0566 212.378 59.1004C212.602 59.1443 212.61 59.3851 212.4 59.8229C212.131 60.4067 211.772 61.1657 211.323 62.0998C210.874 63.034 210.328 63.9388 209.684 64.8146C209.041 65.6901 208.285 66.4491 207.417 67.0913C206.549 67.7336 205.547 68.0546 204.41 68.0546C203.572 68.0546 202.921 67.9014 202.457 67.595C201.993 67.2885 201.664 66.8871 201.469 66.3907C201.275 65.8946 201.185 65.34 201.2 64.7269C201.215 64.114 201.282 63.4863 201.402 62.8441C201.522 62.2018 201.671 61.5817 201.851 60.9833C201.967 60.5978 202.07 60.2456 202.161 59.9267C201.908 60.4958 201.578 61.2201 201.172 62.0998C200.741 63.034 200.216 63.9388 199.598 64.8146C198.98 65.6901 198.254 66.4491 197.42 67.0913C196.587 67.7336 195.624 68.0546 194.532 68.0546C193.727 68.0546 193.101 67.9014 192.656 67.595C192.21 67.2885 191.894 66.8871 191.707 66.3907C191.52 65.8946 191.434 65.34 191.449 64.7269C191.463 64.114 191.528 63.4863 191.643 62.8441C191.758 62.2018 191.901 61.5817 192.074 60.9833L192.093 60.9183C191.882 61.3369 191.648 61.7892 191.391 62.275C190.912 63.1798 190.382 64.0556 189.802 64.902C189.222 65.7485 188.606 66.4711 187.953 67.0695C187.3 67.6679 186.654 67.9962 186.016 68.0546C185.668 68.0839 185.291 68.0182 184.885 67.8576C184.479 67.697 184.145 67.4051 183.884 66.9818C183.623 66.5586 183.47 65.9748 183.427 65.2305C183.383 64.4861 183.521 63.5447 183.84 62.4063C183.492 62.9901 183.042 63.6687 182.491 64.4422C181.94 65.2158 181.345 65.9091 180.707 66.5223C179.865 67.3394 179.089 67.8213 178.379 67.9671C177.668 68.1129 177.066 68.0037 176.572 67.6386C176.079 67.2738 175.724 66.6974 175.506 65.9091C175.309 65.1961 175.261 64.3696 175.361 63.4295C174.985 64.1302 174.625 64.7475 174.282 65.281C173.891 65.8901 173.493 66.4259 173.087 66.8897C172.681 67.3537 172.232 67.8173 171.74 68.2808C170.986 69.0344 170.168 69.5203 169.284 69.7374C168.4 69.9547 167.582 69.8602 166.829 69.4546C166.162 69.1071 165.713 68.5561 165.481 67.8025C165.249 67.0491 165.155 66.1797 165.198 65.1942C165.242 64.2087 165.394 63.1651 165.655 62.064C165.916 60.9626 166.213 59.8899 166.546 58.8467C166.879 57.8031 167.205 56.8467 167.524 55.9775C167.842 55.1078 168.089 54.4267 168.263 53.9336C167.77 53.9336 166.916 53.9122 165.698 53.8686C164.482 53.8252 163.134 53.7743 161.657 53.7164C160.179 53.6585 158.702 53.6004 157.224 53.5427C155.746 53.4843 154.515 53.4264 153.53 53.3687C152.69 55.8902 151.567 58.3829 150.162 60.8468C148.757 63.3102 147.098 65.5494 145.186 67.5638C143.273 69.5782 141.129 71.2812 138.753 72.6721C136.378 74.0634 133.784 74.9329 130.975 75.2806C128.482 75.5995 126.078 75.4907 123.76 74.9544C121.442 74.4184 119.45 73.4909 117.784 72.1719C116.118 70.8532 114.923 69.1723 114.199 67.1289C113.475 65.0856 113.46 62.7013 114.156 59.9769C114.329 59.2812 114.641 58.6003 115.09 57.9337C115.539 57.2668 116.031 56.6802 116.567 56.173C117.103 55.6656 117.632 55.2525 118.154 54.9338C118.675 54.6152 119.11 54.4557 119.458 54.4557C119.921 54.4557 120.109 54.535 120.022 54.6944C119.936 54.8541 119.776 54.9772 119.544 55.0642C119.197 55.2093 118.791 55.4844 118.327 55.8902C117.864 56.2961 117.415 56.796 116.98 57.3904C116.546 57.9846 116.155 58.6655 115.807 59.4336C115.459 60.2018 115.227 61.0349 115.111 61.9334C114.909 63.4985 115.01 64.8828 115.416 66.0852C115.821 67.2883 116.423 68.3099 117.219 69.1505C118.016 69.9911 118.972 70.6795 120.088 71.2155C121.203 71.752 122.362 72.1431 123.564 72.3893C124.767 72.6357 125.976 72.7518 127.193 72.737C128.41 72.7227 129.526 72.5996 130.54 72.3677C133.582 71.672 136.24 70.6432 138.515 69.2809C140.789 67.9188 142.752 66.368 144.403 64.6291C146.055 62.89 147.431 61.0349 148.532 59.0641C149.633 57.0931 150.545 55.1657 151.27 53.2815C150.806 53.2815 150.357 53.3471 149.923 53.477C149.488 53.6076 149.068 53.7743 148.662 53.9774C148.546 54.0353 148.387 54.093 148.184 54.1514C147.982 54.2093 147.8 54.2379 147.641 54.2379C147.482 54.2379 147.373 54.1873 147.315 54.086C147.257 53.9847 147.315 53.7886 147.489 53.4993C147.692 53.1802 148.047 52.8397 148.554 52.4772C149.061 52.1152 149.604 51.9049 150.183 51.847H151.878C152.429 50.4847 153.023 49.0717 153.66 47.6079C154.298 46.1443 154.921 44.7604 155.529 43.4561C156.137 42.1519 156.681 40.9924 157.159 39.9779C157.637 38.9635 157.992 38.2244 158.224 37.7607C156.804 37.9346 155.348 38.0725 153.856 38.1736C152.364 38.2751 150.893 38.4275 149.445 38.6301C147.996 38.8334 146.598 39.1305 145.251 39.5213C143.903 39.9129 142.65 40.4632 141.491 41.1734C140.333 41.8837 139.312 42.7965 138.428 43.9128C137.544 45.0284 136.841 46.4268 136.32 48.1083C135.943 49.2961 135.827 50.4052 135.972 51.4338C136.117 52.4629 136.45 53.3251 136.972 54.0208C137.493 54.7162 138.189 55.1873 139.058 55.4335C139.927 55.6802 140.912 55.6002 142.013 55.1946C142.824 54.9047 143.505 54.3755 144.056 53.6076C144.606 52.8397 145.033 52.0355 145.338 51.1949C145.642 50.3541 145.838 49.5719 145.924 48.8469C146.011 48.1226 145.982 47.6588 145.838 47.456C145.722 47.282 145.671 47.1371 145.685 47.021C145.7 46.9052 145.751 46.8325 145.838 46.8036C145.924 46.7746 146.018 46.7818 146.12 46.8255C146.222 46.8691 146.316 46.9774 146.403 47.1516C146.808 48.0501 146.96 48.9629 146.859 49.8905C146.757 50.8181 146.482 51.6878 146.033 52.499C145.584 53.3106 145.005 54.028 144.295 54.6513C143.585 55.2743 142.839 55.731 142.057 56.0206C140.753 56.5135 139.5 56.6075 138.297 56.3032C137.095 55.9988 136.066 55.4265 135.212 54.5861C134.357 53.7455 133.748 52.6948 133.386 51.4338C133.024 50.1733 133.017 48.8326 133.365 47.4123C133.828 45.5865 134.581 44.0723 135.624 42.8692C136.668 41.6663 137.892 40.6883 139.297 39.9345C140.702 39.1809 142.252 38.6156 143.947 38.2388C145.642 37.8622 147.351 37.5867 149.075 37.4129C150.799 37.2387 152.501 37.1159 154.181 37.0432C155.862 36.971 157.412 36.8622 158.832 36.7172C158.919 36.6012 159.071 36.3695 159.288 36.0218C159.505 35.6738 159.774 35.3116 160.092 34.9345C160.411 34.558 160.751 34.2102 161.114 33.8914C161.476 33.5725 161.831 33.3549 162.178 33.2393C162.816 33.0651 163.388 33.0721 163.895 33.2611C164.402 33.4494 164.655 33.8477 164.655 34.4564C164.655 34.9781 164.467 35.4347 164.09 35.8258C163.714 36.2173 163.265 36.5505 162.743 36.826C162.222 37.1013 161.664 37.3116 161.07 37.4563C160.476 37.6014 159.962 37.6737 159.527 37.6737C159.267 38.2244 158.955 38.9056 158.593 39.7171C158.231 40.5286 157.868 41.4053 157.506 42.347C157.144 43.2893 156.775 44.2603 156.398 45.2601C156.022 46.2604 155.667 47.1952 155.333 48.0644C155 48.9341 154.71 49.702 154.464 50.3688C154.218 51.0357 154.037 51.5283 153.921 51.847C155.37 51.847 156.811 51.8833 158.245 51.9558C159.679 52.0282 161.041 52.1152 162.33 52.2165C163.62 52.3178 164.808 52.4048 165.894 52.4772C166.98 52.5497 167.9 52.5863 168.654 52.5863C168.77 52.2674 169.001 51.6587 169.349 50.7599C169.697 49.8617 170.124 48.811 170.631 47.6079C171.138 46.4053 171.71 45.13 172.348 43.7822C172.985 42.4344 173.637 41.1809 174.304 40.0212C174.97 38.862 175.629 37.8622 176.281 37.0216C176.933 36.181 177.549 35.6593 178.128 35.4565C178.562 35.3116 178.983 35.188 179.388 35.0867C179.794 34.9854 180.127 34.9202 180.388 34.8912C180.649 34.8623 180.779 34.8912 180.779 34.9781C180.779 35.0649 180.576 35.21 180.171 35.4131ZM162.613 34.5001C162.497 34.4421 162.345 34.4853 162.156 34.6304C161.968 34.7751 161.758 34.9566 161.527 35.1737C161.295 35.3911 161.07 35.6302 160.852 35.8912C160.635 36.1522 160.454 36.3841 160.309 36.5866C161.237 36.4417 161.903 36.2537 162.309 36.0218C162.714 35.7897 162.96 35.558 163.048 35.3261C163.134 35.0942 163.113 34.8984 162.982 34.7392C162.852 34.5795 162.729 34.5001 162.613 34.5001ZM203.026 45.7239C203.227 45.2275 203.4 44.6875 203.544 44.1037C203.687 43.5198 203.737 43.06 203.695 42.7245C203.651 42.3887 203.5 42.2647 203.242 42.3524C202.983 42.4398 202.566 42.9069 201.991 43.7534C201.474 44.5124 200.884 45.5194 200.223 46.7746C199.562 48.0299 198.915 49.3507 198.283 50.7372C197.651 52.1239 197.061 53.4813 196.515 54.8093C195.969 56.1376 195.523 57.2394 195.178 58.1152C195.955 57.3271 196.716 56.4295 197.463 55.4225C198.211 54.4154 198.93 53.3645 199.62 52.2697C200.31 51.1752 200.942 50.0659 201.517 48.9421C202.092 47.8182 202.595 46.7455 203.026 45.7239ZM213.253 45.7239C213.463 45.2275 213.642 44.6875 213.792 44.1037C213.942 43.5198 213.994 43.06 213.949 42.7245C213.904 42.3887 213.747 42.2647 213.478 42.3524C213.208 42.4398 212.774 42.9069 212.176 43.7534C211.637 44.5124 211.024 45.5194 210.335 46.7746C209.647 48.0299 208.973 49.3507 208.315 50.7372C207.657 52.1239 207.043 53.4813 206.475 54.8093C205.906 56.1376 205.442 57.2394 205.083 58.1152C205.891 57.3271 206.684 56.4295 207.462 55.4225C208.24 54.4154 208.989 53.3645 209.707 52.2697C210.425 51.1752 211.084 50.0659 211.682 48.9421C212.281 47.8182 212.804 46.7455 213.253 45.7239Z" fill="#2B2A29"/>
</svg>
