<svg width="17" height="16" viewBox="0 0 17 16" fill="none" xmlns="http://www.w3.org/2000/svg">
<path d="M12.8781 8.50869C12.886 7.89542 13.0494 7.2941 13.3529 6.7607C13.6565 6.2273 14.0905 5.77914 14.6144 5.45793C14.2816 4.98389 13.8425 4.59378 13.332 4.31857C12.8215 4.04337 12.2537 3.89065 11.6737 3.87255C10.4364 3.74304 9.23686 4.61086 8.60634 4.61086C7.96363 4.61086 6.99287 3.88541 5.94752 3.90686C5.27135 3.92864 4.61238 4.12471 4.0348 4.47597C3.45722 4.82723 2.98074 5.32169 2.65177 5.91118C1.22679 8.37146 2.2897 11.9873 3.65474 13.976C4.3377 14.9498 5.13587 16.0376 6.18029 15.999C7.20231 15.9567 7.58401 15.3491 8.81767 15.3491C10.0399 15.3491 10.398 15.999 11.4636 15.9745C12.5603 15.9567 13.2512 14.9963 13.9102 14.0133C14.4009 13.3194 14.7785 12.5525 15.029 11.741C14.3919 11.4723 13.8482 11.0225 13.4657 10.4477C13.0832 9.8729 12.8788 9.19854 12.8781 8.50869Z" fill="#503D3B"/>
<path d="M10.8672 2.56477C11.4652 1.84896 11.7598 0.92891 11.6884 0C10.7749 0.0956801 9.93105 0.531068 9.32502 1.21941C9.02871 1.55569 8.80177 1.9469 8.65718 2.37069C8.51258 2.79447 8.45316 3.24253 8.48231 3.68923C8.93924 3.69392 9.39128 3.59516 9.80439 3.40038C10.2175 3.20561 10.5809 2.9199 10.8672 2.56477Z" fill="#503D3B"/>
</svg>
