<svg width="17" height="17" viewBox="0 0 17 17" fill="none" xmlns="http://www.w3.org/2000/svg">
<path d="M16.52 12.4767L14.1475 10.1042C13.3002 9.25692 11.8598 9.59588 11.5209 10.6974C11.2667 11.46 10.4194 11.8836 9.65677 11.7141C7.96214 11.2905 5.67439 9.08746 5.25073 7.3081C4.99654 6.54548 5.50493 5.69816 6.26751 5.444C7.36902 5.10508 7.70795 3.66464 6.86063 2.81732L4.48815 0.444841C3.8103 -0.14828 2.79352 -0.14828 2.2004 0.444841L0.5905 2.05474C-1.0194 3.74937 0.759963 8.24014 4.74235 12.2225C8.72473 16.2049 13.2155 18.069 14.9101 16.3744L16.52 14.7645C17.1132 14.0866 17.1132 13.0698 16.52 12.4767Z" fill="#7E6368"/>
</svg>
