<svg width="17" height="16" viewBox="0 0 17 16" fill="none" xmlns="http://www.w3.org/2000/svg">
<g clip-path="url(#clip0_914_1764)">
<path d="M1.37927 0.684957C1.20243 0.86544 1.1001 1.14644 1.1001 1.51034V14.4905C1.1001 14.8544 1.20243 15.1354 1.37927 15.3158L1.42291 15.3555L8.88304 8.08478V7.9131L1.42291 0.642405L1.37927 0.684957Z" fill="#503D3B"/>
<path d="M12.2698 10.5098L9.78589 8.08498V7.9133L12.2728 5.48851L12.3285 5.52006L15.2738 7.15395C16.1143 7.61763 16.1143 8.38065 15.2738 8.84726L12.3285 10.4782L12.2698 10.5098Z" fill="#503D3B"/>
<path d="M11.877 10.9295L9.33434 8.45047L1.83057 15.7674C2.10974 16.0535 2.56499 16.088 3.0827 15.8019L11.877 10.9295Z" fill="#503D3B"/>
<path d="M11.877 5.0678L3.0827 0.195479C2.56499 -0.0877185 2.10974 -0.0532368 1.83057 0.232895L9.33434 7.54688L11.877 5.0678Z" fill="#503D3B"/>
</g>
<defs>
<clipPath id="clip0_914_1764">
<rect width="16" height="16" fill="white" transform="translate(0.5)"/>
</clipPath>
</defs>
</svg>
