<svg width="24" height="25" viewBox="0 0 24 25" fill="none" xmlns="http://www.w3.org/2000/svg">
<path d="M20.1 6.13585C20.1 7.09446 19.3229 7.87157 18.3643 7.87157C17.4057 7.87157 16.6286 7.09446 16.6286 6.13585C16.6286 5.17725 17.4057 4.40014 18.3643 4.40014C19.3229 4.40014 20.1 5.17725 20.1 6.13585Z" fill="#C7A17A"/>
<path fill-rule="evenodd" clip-rule="evenodd" d="M12 18.2859C15.1954 18.2859 17.7857 15.6955 17.7857 12.5001C17.7857 9.30478 15.1954 6.71443 12 6.71443C8.80465 6.71443 6.2143 9.30478 6.2143 12.5001C6.2143 15.6955 8.80465 18.2859 12 18.2859ZM12 15.9716C13.9172 15.9716 15.4714 14.4174 15.4714 12.5001C15.4714 10.5829 13.9172 9.02871 12 9.02871C10.0828 9.02871 8.52859 10.5829 8.52859 12.5001C8.52859 14.4174 10.0828 15.9716 12 15.9716Z" fill="#C7A17A"/>
<path fill-rule="evenodd" clip-rule="evenodd" d="M0.428589 12.0373C0.428589 8.14892 0.428589 6.20474 1.18531 4.71958C1.85095 3.41319 2.91307 2.35107 4.21945 1.68544C5.70461 0.928711 7.6488 0.928711 11.5372 0.928711H12.4629C16.3512 0.928711 18.2954 0.928711 19.7806 1.68544C21.087 2.35107 22.1491 3.41319 22.8147 4.71958C23.5714 6.20474 23.5714 8.14892 23.5714 12.0373V12.963C23.5714 16.8514 23.5714 18.7955 22.8147 20.2807C22.1491 21.5871 21.087 22.6492 19.7806 23.3148C18.2954 24.0716 16.3512 24.0716 12.4629 24.0716H11.5372C7.6488 24.0716 5.70461 24.0716 4.21945 23.3148C2.91307 22.6492 1.85095 21.5871 1.18531 20.2807C0.428589 18.7955 0.428589 16.8514 0.428589 12.963V12.0373ZM11.5372 3.243H12.4629C14.4452 3.243 15.7928 3.2448 16.8345 3.3299C17.8491 3.4128 18.368 3.56306 18.7299 3.74748C19.6008 4.19124 20.3089 4.89932 20.7527 5.77024C20.9371 6.13219 21.0874 6.65107 21.1703 7.66568C21.2554 8.70732 21.2572 10.0549 21.2572 12.0373V12.963C21.2572 14.9454 21.2554 16.293 21.1703 17.3346C21.0874 18.3492 20.9371 18.8681 20.7527 19.23C20.3089 20.101 19.6008 20.809 18.7299 21.2528C18.368 21.4372 17.8491 21.5875 16.8345 21.6704C15.7928 21.7555 14.4452 21.7573 12.4629 21.7573H11.5372C9.55479 21.7573 8.2072 21.7555 7.16556 21.6704C6.15094 21.5875 5.63207 21.4372 5.27012 21.2528C4.3992 20.809 3.69112 20.101 3.24736 19.23C3.06293 18.8681 2.91268 18.3492 2.82978 17.3346C2.74467 16.293 2.74287 14.9454 2.74287 12.963V12.0373C2.74287 10.0549 2.74467 8.70732 2.82978 7.66568C2.91268 6.65107 3.06293 6.13219 3.24736 5.77024C3.69112 4.89932 4.3992 4.19124 5.27012 3.74748C5.63207 3.56306 6.15094 3.4128 7.16556 3.3299C8.2072 3.2448 9.55479 3.243 11.5372 3.243Z" fill="#C7A17A"/>
</svg>
