<svg width="25" height="15" viewBox="0 0 25 15" fill="none" xmlns="http://www.w3.org/2000/svg">
<path d="M4.37526 0.75H1.75026C1.00026 0.75 0.85025 1.10306 0.85025 1.49239C0.85025 2.18766 1.74019 5.63611 4.99393 10.1969C7.16308 13.3116 10.2193 15 13.0003 15C14.6688 15 14.8753 14.625 14.8753 13.9791V11.625C14.8753 10.875 15.0333 10.7253 15.5617 10.7253C15.951 10.7253 16.6185 10.92 18.1759 12.4217C19.9557 14.2016 20.2491 15 21.2503 15H23.8753C24.6253 15 25.0003 14.625 24.7839 13.885C24.5472 13.1474 23.6974 12.0773 22.5699 10.8087C21.958 10.0857 21.0403 9.30705 20.7622 8.91763C20.3728 8.41711 20.4841 8.19458 20.7622 7.74966L20.8089 7.68343C21.2044 7.12124 23.9842 3.13518 24.2941 1.71492C24.4609 1.15871 24.2941 0.75 23.5003 0.75H20.8753C20.2078 0.75 19.9001 1.10306 19.7332 1.49239C19.7332 1.49239 18.3983 4.74618 16.5072 6.85973C15.8954 7.47153 15.6173 7.66619 15.2836 7.66619C15.1168 7.66619 14.8752 7.47153 14.8752 6.91537V1.71492C14.8752 1.04747 14.6815 0.75 14.1253 0.75H10.0003C9.58316 0.75 9.33232 1.05978 9.33232 1.35337C9.33232 1.9861 10.2778 2.13202 10.3753 3.91189V7.77748C10.3753 8.625 10.2222 8.77866 9.88848 8.77866C8.99859 8.77866 6.83393 5.51033 5.55009 1.77052C5.29849 1.04362 5.04614 0.75 4.37526 0.75Z" fill="#C7A17A"/>
</svg>
